<?xml version="1.0" encoding="UTF-8" standalone="no"?>
<svg
   xmlns:dc="http://purl.org/dc/elements/1.1/"
   xmlns:cc="http://creativecommons.org/ns#"
   xmlns:rdf="http://www.w3.org/1999/02/22-rdf-syntax-ns#"
   xmlns:svg="http://www.w3.org/2000/svg"
   xmlns="http://www.w3.org/2000/svg"
   xmlns:sodipodi="http://sodipodi.sourceforge.net/DTD/sodipodi-0.dtd"
   xmlns:inkscape="http://www.inkscape.org/namespaces/inkscape"
   version="1.1"
   id="svg2"
   viewBox="0 0 744.09448819 1052.3622047"
   height="297mm"
   width="210mm"
   inkscape:version="0.91 r13725"
   sodipodi:docname="four_day_background.svg">
  <sodipodi:namedview
     pagecolor="#ffffff"
     bordercolor="#666666"
     borderopacity="1"
     objecttolerance="10"
     gridtolerance="10"
     guidetolerance="10"
     inkscape:pageopacity="0"
     inkscape:pageshadow="2"
     inkscape:window-width="1387"
     inkscape:window-height="856"
     id="namedview151"
     showgrid="false"
     inkscape:zoom="0.44851478"
     inkscape:cx="125.36937"
     inkscape:cy="956.5108"
     inkscape:window-x="0"
     inkscape:window-y="0"
     inkscape:window-maximized="0"
     inkscape:current-layer="svg2" />
  <defs
     id="defs4">
    <filter
       height="1.5889766"
       y="-0.29448831"
       width="1.1906002"
       x="-0.095300101"
       id="filter4050">
      <feGaussianBlur
         id="feGaussianBlur4052"
         stdDeviation="9.0274692" />
    </filter>
  </defs>
  <metadata
     id="metadata7">
    <rdf:RDF>
      <cc:Work
         rdf:about="">
        <dc:format>image/svg+xml</dc:format>
        <dc:type
           rdf:resource="http://purl.org/dc/dcmitype/StillImage" />
        <dc:title />
      </cc:Work>
    </rdf:RDF>
  </metadata>
  <path
     inkscape:connector-curvature="0"
     style="opacity:0.06;fill:#f89522;fill-opacity:1"
     d="m -2222.3067,489.2584 c -15.1721,-6.0986 -21.6521,-15.7972 -23.3753,-34.9858 -1.6198,-18.036 -15.5156,-36.9699 -38.3751,-52.2882 -12.9731,-8.6934 -39.9699,-21.8611 -59.0254,-28.7896 -18.1592,-6.6027 -23.8051,-10.2312 -29.3408,-18.8571 -3.7161,-5.7905 -4.3598,-8.0528 -4.7565,-16.7145 -0.3583,-7.8257 0.1017,-11.2842 2.102,-15.8064 5.7966,-13.1041 4.7958,-12.5327 82.4928,-47.0948 l 71.6487,-31.8715 10.4729,0 c 11.8006,0 17.8744,2.2523 24.8295,9.2074 5.877,5.877 8.9785,13.1119 9.6066,22.4092 0.8714,12.8996 -4.4605,24.7169 -13.9222,30.8562 -2.6425,1.7146 -18.5011,9.2001 -35.2415,16.6345 -16.7403,7.4343 -30.4189,13.8842 -30.3968,14.333 0.022,0.4488 5.4572,4.3506 12.0781,8.6707 16.8798,11.0139 42.7343,36.958 50.879,51.0555 11.9285,20.6468 17.5138,40.7915 16.6235,59.9567 -0.7361,15.843 -6.6469,25.774 -18.8733,31.7095 -6.1708,2.9958 -21.6765,3.8863 -27.4262,1.5752 z m -272.0679,-172.9763 c -11.6291,-4.3277 -21.1329,-16.6331 -22.6339,-29.3062 -1.0818,-9.1347 2.2501,-19.4445 8.6245,-26.6862 4.9301,-5.6009 13.8207,-9.9125 177.2496,-85.9602 l 172.0591,-80.063603 8.9975,0.029 c 20.7199,0.066 34.8525,14.276403 34.8525,35.043803 0,10.6614 -5.1145,21.3648 -12.7803,26.746 -2.871,2.0154 -81.2141,39.0756 -174.0959,82.356 -165.3263,77.0377 -169.0685,78.7026 -178.0397,79.21 -5.9532,0.3367 -10.9399,-0.1427 -14.2334,-1.3683 z m -27.0122,-101.4132 c -9.26,-3.038 -17.0884,-9.6868 -21.7727,-18.492 -2.3551,-4.4271 -2.4375,-13.9404 -2.4375,-281.562503 l 0,-276.980497 3.9554,-6.3977 c 8.0769,-13.064 22.4437,-19.636 36.4428,-16.6706 8.4882,1.7981 582.3495,268.7541 588.6259,273.8244 7.6534,6.1827 11.1334,14.640597 11.1334,27.058697 0,9.5068 -0.4065,11.2578 -3.9274,16.9182 -2.16,3.4727 -5.9892,7.9176 -8.5092,9.8776 -2.5201,1.96 -134.7735,64.0935998 -293.8964,138.0746 -277.7907,129.153303 -289.6535,134.529303 -297.8238,134.968703 -4.6801,0.2516 -9.9858,-0.027 -11.7905,-0.6189 z m 278.5056,-197.474303 c 120.4128,-56.0026 218.9182,-102.1175 218.9009,-102.4775 -0.052,-1.0773 -450.8412,-210.377797 -451.9063,-209.819097 -1.1408,0.5986 -1.3592,418.4638 -0.2193,419.6037 0.4194,0.4194 3.8067,-0.643 7.5274,-2.3608 3.7207,-1.7179 105.2845,-48.943703 225.6973,-104.946303 z m -182.3846,32.3993 c -6.8196,-3.4612 -13.0757,-9.5838 -16.6888,-16.3326 l -2.8405,-5.3057 -0.3633,-109.8338 c -0.4075,-123.144697 -0.7218,-118.523797 8.7979,-129.338797 7.4657,-8.4815 16.1535,-11.95 28.1153,-11.2249 9.0171,0.5467 12.3847,2.0134 123.8168,53.9249 124.4068,57.956 122.9866,57.1782 127.9524,70.081697 4.9014,12.7364 1.6526,28.7719 -7.7303,38.1548 -3.4478,3.4478 -30.9487,16.8069 -119.6234,58.1091998 l -115.1463,53.6322002 -10.4729,0.4226 c -8.5667,0.3457 -11.4456,-0.071 -15.8169,-2.2896 z m 103.0262,-111.5423 c 26.5563,-12.347 48.2841,-22.8201 48.2841,-23.2734 0,-0.6322 -91.424,-43.806597 -99.1655,-46.830297 -1.2908,-0.5041 -1.6364,9.3744 -1.6364,46.769197 0,43.1279 0.1911,47.3349 2.1169,46.5959 1.1643,-0.4467 23.8447,-10.9144 50.4009,-23.2614 z m 329.6217,140.9777 c -6.9124,-3.6012 -13.7237,-10.8299 -16.58,-17.5961 -2.9458,-6.978 -2.6608,-20.4591 0.5855,-27.7036 5.3528,-11.9452 6.277,-12.4735 89.7169,-51.2864 l 78.0537,-36.3073 8.9383,0.029 c 13.6052,0.044 24.3484,5.9272 30.3284,16.1532 l -0.2956,36.60909978 c -2.4884,4.35580002 -5.7641,8.02980002 -9.5743,10.37630002 -2.7361,1.6849002 -38.8799,18.7949002 -80.3197,38.0221002 l -75.3449,34.9585 -9.7476,-0.061 c -7.6519,-0.048 -11.0402,-0.7345 -15.7607,-3.1937 z M -2114.8363,-243.6299 c -162.6891,-75.6717 -297.7367,-139.0634 -300.1058,-140.8704 -2.3876,-1.8212 -6.1405,-7.0089 -8.4201,-11.6394 -3.703,-7.522 -4.0495,-9.2355 -3.4791,-17.2076 0.6921,-9.6726 2.829,-14.8287 9.1109,-21.9835 6.7546,-7.693 13.1999,1.6632 25.3,1.6221 l 10.4729,-0.035 18.8375,-3.2294 275.7134,128.3696 c 129.6928,60.3837 241.979,113.0135 283.0488,132.6178 0.912,0.4354 1.7888,0.8544 2.63,1.2569 0,0 0.2031,68.3279 -0.2641,68.1619 -0.6683,0.1045 -1.3517,0.1931 -2.0512,0.2661 -1.7259,0.1803 -3.5502,0.2662 -5.4895,0.2645 l -9.5053,-0.01 -295.7984,-137.585 z m 242.3186,-3.7398 c -2.0534,-0.6586 -69.4869,-31.7185 -149.8522,-69.0218 -132.2001,-61.3637 -146.6971,-68.3927 -152.19,-73.7917 -12.8716,-12.6513 -13.19,-31.9645 -3.5035,-45.2797 3.6336,-4.9949 8.6751,2.8543 14.99,0.2158 3.4076,-1.4238 7.7717,-1.8704 14.727,-1.507 l 9.8843,0.5165 23.4218,-1.1093 122.5446,56.9812 c 80.2815,37.3295 147.9212,69.3209 150.3105,71.092 25.9759,19.2547 13.7292,60.7917 -18.4674,62.6358 -4.4725,0.2562 -9.8118,-0.073 -11.8651,-0.7318 z"
     id="path32660"
     inkscape:export-xdpi="90"
     inkscape:export-ydpi="90" />
  <rect
     style="fill:#c1f1fa;fill-opacity:1;stroke:none"
     id="rect32662"
     width="67.172585"
     height="793.62384"
     x="-2499.4971"
     y="-253.10719"
     inkscape:export-xdpi="90"
     inkscape:export-ydpi="90" />
  <path
     inkscape:connector-curvature="0"
     style="fill:#13a1b9;fill-opacity:1;stroke:none;stroke-width:1px;stroke-linecap:butt;stroke-linejoin:miter;stroke-opacity:1"
     d="m -2566.9962,-439.5307 765,0 0,31.8051 -765,73.4769 z"
     id="path32664"
     inkscape:export-xdpi="90"
     inkscape:export-ydpi="90" />
  <path
     inkscape:connector-curvature="0"
     style="fill:#12708c;fill-opacity:1;stroke:none;stroke-width:1px;stroke-linecap:butt;stroke-linejoin:miter;stroke-opacity:1"
     d="m -2566.9962,-334.2487 0,38.2379 357.2496,-72.5511 z"
     id="path32666"
     inkscape:export-xdpi="90"
     inkscape:export-ydpi="90" />
  <rect
     y="-13.015871"
     x="-2499.4971"
     height="10"
     width="67.172585"
     id="rect32676"
     style="opacity:1;fill:#fbbc75;fill-opacity:1;stroke:none;stroke-width:17;stroke-linecap:round;stroke-miterlimit:4;stroke-dasharray:none;stroke-opacity:1"
     inkscape:export-xdpi="90"
     inkscape:export-ydpi="90" />
  <rect
     style="opacity:1;fill:#fbbc75;fill-opacity:1;stroke:none;stroke-width:17;stroke-linecap:round;stroke-miterlimit:4;stroke-dasharray:none;stroke-opacity:1"
     id="rect32678"
     width="67.172585"
     height="3"
     x="-2499.4971"
     y="42.650143"
     inkscape:export-xdpi="90"
     inkscape:export-ydpi="90" />
  <rect
     y="-253.10719"
     x="-2499.4971"
     height="793.62384"
     width="67.172585"
     id="rect32680"
     style="fill:#c1f1fa;fill-opacity:1;stroke:none"
     inkscape:export-xdpi="90"
     inkscape:export-ydpi="90" />
  <path
     inkscape:connector-curvature="0"
     id="path32686"
     d="m -1801.9963,549.96933 -765,0 0,-22.03064 765,-67.99999 z"
     style="fill:#f89522;fill-opacity:1;stroke:none"
     inkscape:export-xdpi="90"
     inkscape:export-ydpi="90" />
  <path
     inkscape:connector-curvature="0"
     id="path32688"
     d="m -1801.9963,459.9387 0,-35.38777 -357.2496,67.14327 z"
     style="fill:#d3832a;fill-opacity:1;stroke:none"
     inkscape:export-xdpi="90"
     inkscape:export-ydpi="90" />
  <text
     sodipodi:linespacing="120%"
     xml:space="preserve"
     style="font-style:normal;font-variant:normal;font-weight:bold;font-stretch:normal;font-size:18.75px;line-height:120.00000477%;font-family:'Open Sans';-inkscape-font-specification:'Sans Bold';letter-spacing:0px;word-spacing:0px;fill:#c57a27;fill-opacity:1;stroke:none;stroke-width:1px;stroke-linecap:butt;stroke-linejoin:miter;stroke-opacity:1"
     x="-1870.3536"
     y="529.6955"
     id="text32692"
     inkscape:export-xdpi="90"
     inkscape:export-ydpi="90"><tspan
       id="tspan32694"
       x="-1870.3536"
       y="529.6955">PA01</tspan></text>
  <rect
     style="opacity:1;fill:none;fill-opacity:1;stroke:none;stroke-width:14;stroke-linecap:round;stroke-linejoin:round;stroke-miterlimit:4;stroke-dasharray:none;stroke-dashoffset:0;stroke-opacity:1"
     id="rect32696"
     width="91.214317"
     height="45.988194"
     x="-1893.2107"
     y="503.98123"
     inkscape:export-xdpi="90"
     inkscape:export-ydpi="90" />
  <path
     style="fill:#f89522;fill-opacity:1;stroke:none"
     d="m -1801.9963,549.96933 -765,0 0,-22.03064 765,-67.99999 z"
     id="path32698"
     inkscape:connector-curvature="0"
     inkscape:export-xdpi="90"
     inkscape:export-ydpi="90" />
  <path
     style="fill:#d3832a;fill-opacity:1;stroke:none"
     d="m -1801.9963,459.9387 0,-35.38777 -357.2496,67.14327 z"
     id="path32700"
     inkscape:connector-curvature="0"
     inkscape:export-xdpi="90"
     inkscape:export-ydpi="90" />
  <path
     inkscape:connector-curvature="0"
     id="path32702"
     d="m -2566.9962,-439.5307 765,0 0,31.8051 -765,73.4769 z"
     style="fill:#13a1b9;fill-opacity:1;stroke:none;stroke-width:1px;stroke-linecap:butt;stroke-linejoin:miter;stroke-opacity:1"
     inkscape:export-xdpi="90"
     inkscape:export-ydpi="90" />
  <path
     inkscape:connector-curvature="0"
     id="path32704"
     d="m -2566.9962,-334.2487 0,38.2379 357.2496,-72.5511 z"
     style="fill:#12708c;fill-opacity:1;stroke:none;stroke-width:1px;stroke-linecap:butt;stroke-linejoin:miter;stroke-opacity:1"
     inkscape:export-xdpi="90"
     inkscape:export-ydpi="90" />
  <path
     inkscape:connector-curvature="0"
     id="path32716"
     d="m -1356.5924,489.2584 c -15.1721,-6.0986 -21.6521,-15.7972 -23.3753,-34.9858 -1.6198,-18.036 -15.5156,-36.9699 -38.3751,-52.2882 -12.9731,-8.6934 -39.9699,-21.8611 -59.0254,-28.7896 -18.1592,-6.6027 -23.8051,-10.2312 -29.3408,-18.8571 -3.7161,-5.7905 -4.3598,-8.0528 -4.7565,-16.7145 -0.3583,-7.8257 0.1017,-11.2842 2.102,-15.8064 5.7966,-13.1041 4.7958,-12.5327 82.4928,-47.0948 l 71.6487,-31.8715 10.4729,0 c 11.8006,0 17.8744,2.2523 24.8295,9.2074 5.877,5.877 8.9785,13.1119 9.6066,22.4092 0.8714,12.8996 -4.4605,24.7169 -13.9222,30.8562 -2.6425,1.7146 -18.5011,9.2001 -35.2415,16.6345 -16.7403,7.4343 -30.4189,13.8842 -30.3968,14.333 0.022,0.4488 5.4572,4.3506 12.0781,8.6707 16.8798,11.0139 42.7343,36.958 50.879,51.0555 11.9285,20.6468 17.5138,40.7915 16.6235,59.9567 -0.7361,15.843 -6.6469,25.774 -18.8733,31.7095 -6.1708,2.9958 -21.6765,3.8863 -27.4262,1.5752 z m -272.0679,-172.9763 c -11.6291,-4.3277 -21.1329,-16.6331 -22.6339,-29.3062 -1.0818,-9.1347 2.2501,-19.4445 8.6245,-26.6862 4.9301,-5.6009 13.8207,-9.9125 177.2496,-85.9602 l 172.0591,-80.06363 8.9975,0.029 c 20.7199,0.066 34.8525,14.27643 34.8525,35.04383 0,10.6614 -5.1145,21.3648 -12.7803,26.746 -2.871,2.0154 -81.2141,39.0756 -174.0959,82.356 -165.3263,77.0377 -169.0685,78.7026 -178.0397,79.21 -5.9532,0.3367 -10.9399,-0.1427 -14.2334,-1.3683 z m -27.0122,-101.4132 c -9.26,-3.038 -17.0884,-9.6868 -21.7727,-18.492 -2.3551,-4.4271 -2.4375,-13.9404 -2.4375,-281.56253 l 0,-276.9805 3.9554,-6.3977 c 8.0769,-13.064 22.4437,-19.636 36.4428,-16.6706 8.4882,1.7981 582.3495,268.7541 588.6259,273.8244 7.6534,6.1827 11.1334,14.6406 11.1334,27.0587 0,9.5068 -0.4065,11.2578 -3.9274,16.9182 -2.16,3.4727 -5.9892,7.9176 -8.5092,9.8776 -2.5201,1.96 -134.7735,64.0936 -293.8964,138.0746 -277.7907,129.15333 -289.6535,134.52933 -297.8238,134.96873 -4.6801,0.2516 -9.9858,-0.027 -11.7905,-0.6189 z m 278.5056,-197.47433 c 120.4128,-56.0026 218.9182,-102.1175 218.9009,-102.4775 -0.052,-1.0773 -450.8412,-210.3778 -451.9063,-209.8191 -1.1408,0.5986 -1.3592,418.46383 -0.2193,419.60373 0.4194,0.4194 3.8067,-0.643 7.5274,-2.3608 3.7207,-1.7179 105.2845,-48.94373 225.6973,-104.94633 z m -182.3846,32.3993 c -6.8196,-3.4612 -13.0757,-9.5838 -16.6888,-16.3326 l -2.8405,-5.3057 -0.3633,-109.8338 c -0.4075,-123.1447 -0.7218,-118.5238 8.7979,-129.3388 7.4657,-8.4815 16.1535,-11.95 28.1153,-11.2249 9.0171,0.5467 12.3847,2.0134 123.8168,53.9249 124.4068,57.956 122.9866,57.1782 127.9524,70.0817 4.9014,12.7364 1.6526,28.7719 -7.7303,38.1548 -3.4478,3.4478 -30.9487,16.8069 -119.6234,58.1092 l -115.1463,53.6322 -10.4729,0.4226 c -8.5667,0.3457 -11.4456,-0.071 -15.8169,-2.2896 z m 103.0262,-111.5423 c 26.5563,-12.347 48.2841,-22.8201 48.2841,-23.2734 0,-0.6322 -91.424,-43.8066 -99.1655,-46.8303 -1.2908,-0.5041 -1.6364,9.3744 -1.6364,46.7692 0,43.1279 0.1911,47.3349 2.1169,46.5959 1.1643,-0.4467 23.8447,-10.9144 50.4009,-23.2614 z m 329.6217,140.9777 c -6.9124,-3.6012 -13.7237,-10.8299 -16.58,-17.5961 -2.9458,-6.978 -2.6608,-20.4591 0.5855,-27.7036 5.3528,-11.9452 6.277,-12.4735 89.7169,-51.2864 l 78.05367,-36.3073 8.9383,0.029 c 13.6052,0.044 24.3484,5.9272 30.3284,16.1532 l -0.2956,36.6091 c -2.4884,4.3558 -5.7641,8.0298 -9.5743,10.3763 -2.7361,1.6849 -38.8799,18.7949 -80.31967,38.0221 l -75.3449,34.9585 -9.7476,-0.061 c -7.6519,-0.048 -11.0402,-0.7345 -15.7607,-3.1937 z m -122.2184,-322.8592 c -162.6891,-75.6717 -297.7367,-139.0634 -300.1058,-140.8704 -2.3876,-1.8212 -6.1405,-7.0089 -8.4201,-11.6394 -3.703,-7.522 -4.0495,-9.2355 -3.4791,-17.2076 0.6921,-9.6726 2.829,-14.8287 9.1109,-21.9835 6.7546,-7.693 13.1999,1.6632 25.3,1.6221 l 10.4729,-0.035 18.8375,-3.2294 275.7134,128.3696 c 129.6928,60.3837 241.97897,113.0135 283.04877,132.6178 0.912,0.4354 1.7888,0.8544 2.63,1.2569 0,0 0.2031,68.3279 -0.2641,68.1619 -0.6683,0.1045 -1.3517,0.1931 -2.0512,0.2661 -1.7259,0.1803 -3.5502,0.2662 -5.4895,0.2645 l -9.5053,-0.01 -295.79837,-137.585 z m 242.3186,-3.7398 c -2.0534,-0.6586 -69.4869,-31.7185 -149.8522,-69.0218 -132.2001,-61.3637 -146.6971,-68.3927 -152.19,-73.7917 -12.8716,-12.6513 -13.19,-31.9645 -3.5035,-45.2797 3.6336,-4.9949 8.6751,2.8543 14.99,0.2158 3.4076,-1.4238 7.7717,-1.8704 14.727,-1.507 l 9.8843,0.5165 23.4218,-1.1093 122.5446,56.9812 c 80.2815,37.3295 147.92117,69.3209 150.31047,71.092 25.9759,19.2547 13.7292,60.7917 -18.4674,62.6358 -4.4725,0.2562 -9.81177,-0.073 -11.86507,-0.7318 z"
     style="opacity:0.06;fill:#f89522;fill-opacity:1"
     inkscape:export-xdpi="90"
     inkscape:export-ydpi="90" />
  <rect
     y="-253.10704"
     x="-1633.7826"
     height="793.62384"
     width="67.172585"
     id="rect32718"
     style="fill:#c1f1fa;fill-opacity:1;stroke:none"
     inkscape:export-xdpi="90"
     inkscape:export-ydpi="90" />
  <path
     inkscape:connector-curvature="0"
     id="path32720"
     d="m -1701.2819,-439.53073 764.99997,0 0,31.8051 -764.99997,73.4769 z"
     style="fill:#13a1b9;fill-opacity:1;stroke:none;stroke-width:1px;stroke-linecap:butt;stroke-linejoin:miter;stroke-opacity:1"
     inkscape:export-xdpi="90"
     inkscape:export-ydpi="90" />
  <path
     inkscape:connector-curvature="0"
     id="path32722"
     d="m -1701.2819,-334.24873 0,38.2379 357.2496,-72.5511 z"
     style="fill:#12708c;fill-opacity:1;stroke:none;stroke-width:1px;stroke-linecap:butt;stroke-linejoin:miter;stroke-opacity:1"
     inkscape:export-xdpi="90"
     inkscape:export-ydpi="90" />
  <rect
     style="opacity:1;fill:#fbbc75;fill-opacity:1;stroke:none;stroke-width:17;stroke-linecap:round;stroke-miterlimit:4;stroke-dasharray:none;stroke-opacity:1"
     id="rect32732"
     width="67.172585"
     height="10"
     x="-1633.7826"
     y="-13.01586"
     inkscape:export-xdpi="90"
     inkscape:export-ydpi="90" />
  <rect
     y="42.65028"
     x="-1633.7826"
     height="3"
     width="67.172585"
     id="rect32734"
     style="opacity:1;fill:#fbbc75;fill-opacity:1;stroke:none;stroke-width:17;stroke-linecap:round;stroke-miterlimit:4;stroke-dasharray:none;stroke-opacity:1"
     inkscape:export-xdpi="90"
     inkscape:export-ydpi="90" />
  <rect
     style="fill:#c1f1fa;fill-opacity:1;stroke:none"
     id="rect32736"
     width="67.172585"
     height="793.62384"
     x="-1633.7826"
     y="-253.10704"
     inkscape:export-xdpi="90"
     inkscape:export-ydpi="90" />
  <g
     transform="translate(751.42854,274.2857)"
     id="g32738"
     inkscape:export-xdpi="90"
     inkscape:export-ydpi="90">
    <g
       id="g32740"
       transform="matrix(0.97142857,0,0,0.97142857,-2441.7819,-757.53965)">
      <path
         inkscape:connector-curvature="0"
         style="fill:#f89522;fill-opacity:1;stroke:none"
         d="m 776.25,1063.6122 -787.5,0 0,-22.6786 787.5,-69.99999 z"
         id="path32742" />
      <path
         inkscape:connector-curvature="0"
         style="fill:#d3832a;fill-opacity:1;stroke:none"
         d="m 776.25,970.93361 0,-36.42858 -367.75696,69.11807 z"
         id="path32744" />
    </g>
    <g
       transform="translate(201.07516,1591.619)"
       id="g32746">
      <text
         sodipodi:linespacing="120%"
         id="text32748"
         y="-1336.2092"
         x="-1957.1429"
         style="font-style:normal;font-variant:normal;font-weight:bold;font-stretch:normal;font-size:18.75px;line-height:120.00000477%;font-family:'Open Sans';-inkscape-font-specification:'Sans Bold';letter-spacing:0px;word-spacing:0px;fill:#c57a27;fill-opacity:1;stroke:none;stroke-width:1px;stroke-linecap:butt;stroke-linejoin:miter;stroke-opacity:1"
         xml:space="preserve"><tspan
           y="-1336.2092"
           x="-1957.1429"
           id="tspan32750">PA01</tspan></text>
      <rect
         y="-1361.9235"
         x="-1980"
         height="45.988194"
         width="91.214317"
         id="rect32752"
         style="opacity:1;fill:none;fill-opacity:1;stroke:none;stroke-width:14;stroke-linecap:round;stroke-linejoin:round;stroke-miterlimit:4;stroke-dasharray:none;stroke-dashoffset:0;stroke-opacity:1" />
    </g>
    <path
       inkscape:connector-curvature="0"
       style="fill:#f89522;fill-opacity:1;stroke:none"
       d="m -1687.7105,275.68363 -765,0 0,-22.03064 765,-67.99999 z"
       id="path32754" />
    <path
       inkscape:connector-curvature="0"
       style="fill:#d3832a;fill-opacity:1;stroke:none"
       d="m -1687.7105,185.653 0,-35.38777 -357.2496,67.14327 z"
       id="path32756" />
  </g>
  <path
     inkscape:connector-curvature="0"
     style="fill:#13a1b9;fill-opacity:1;stroke:none;stroke-width:1px;stroke-linecap:butt;stroke-linejoin:miter;stroke-opacity:1"
     d="m -1701.2819,-439.53073 764.99997,0 0,31.8051 -764.99997,73.4769 z"
     id="path32758"
     inkscape:export-xdpi="90"
     inkscape:export-ydpi="90" />
  <path
     inkscape:connector-curvature="0"
     style="fill:#12708c;fill-opacity:1;stroke:none;stroke-width:1px;stroke-linecap:butt;stroke-linejoin:miter;stroke-opacity:1"
     d="m -1701.2819,-334.24873 0,38.2379 357.2496,-72.5511 z"
     id="path32760"
     inkscape:export-xdpi="90"
     inkscape:export-ydpi="90" />
  <path
     inkscape:connector-curvature="0"
     style="opacity:0.06;fill:#f89522;fill-opacity:1"
     d="m -530.8781,489.2584 c -15.1721,-6.0986 -21.6521,-15.7972 -23.3753,-34.9858 -1.6198,-18.036 -15.5156,-36.9699 -38.3751,-52.2882 -12.9731,-8.6934 -39.9699,-21.8611 -59.0254,-28.7896 -18.1592,-6.6027 -23.8051,-10.2312 -29.3408,-18.8571 -3.7161,-5.7905 -4.3598,-8.0528 -4.7565,-16.7145 -0.3583,-7.8257 0.1017,-11.2842 2.102,-15.8064 5.7966,-13.1041 4.7958,-12.5327 82.4928,-47.0948 l 71.6487,-31.8715 10.4729,0 c 11.8006,0 17.8744,2.2523 24.8295,9.2074 5.877,5.877 8.9785,13.1119 9.6066,22.4092 0.8714,12.8996 -4.4605,24.7169 -13.9222,30.8562 -2.6425,1.7146 -18.5011,9.2001 -35.2415,16.6345 -16.7403,7.4343 -30.4189,13.8842 -30.3968,14.333 0.022,0.4488 5.4572,4.3506 12.0781,8.6707 16.8798,11.0139 42.7343,36.958 50.879,51.0555 11.9285,20.6468 17.5138,40.7915 16.6235,59.9567 -0.7361,15.843 -6.6469,25.774 -18.8733,31.7095 -6.1708,2.9958 -21.6765,3.8863 -27.4262,1.5752 z M -802.946,316.2821 c -11.6291,-4.3277 -21.1329,-16.6331 -22.6339,-29.3062 -1.0818,-9.1347 2.2501,-19.4445 8.6245,-26.6862 4.9301,-5.6009 13.8207,-9.9125 177.2496,-85.9602 l 172.0591,-80.06363 8.9975,0.029 c 20.7199,0.066 34.8525,14.27643 34.8525,35.04383 0,10.6614 -5.1145,21.3648 -12.7803,26.746 -2.871,2.0154 -81.2141,39.0756 -174.0959,82.356 -165.3263,77.0377 -169.0685,78.7026 -178.0397,79.21 -5.9532,0.3367 -10.9399,-0.1427 -14.2334,-1.3683 z m -27.0122,-101.4132 c -9.26,-3.038 -17.0884,-9.6868 -21.7727,-18.492 -2.3551,-4.4271 -2.4375,-13.9404 -2.4375,-281.56253 l 0,-276.9805 3.9554,-6.3977 c 8.0769,-13.064 22.4437,-19.636 36.4428,-16.6706 8.4882,1.7981 582.3495,268.7541 588.6259,273.8244 7.6534,6.1827 11.1334,14.6406 11.1334,27.0587 0,9.5068 -0.4065,11.2578 -3.9274,16.9182 -2.16,3.4727 -5.9892,7.9176 -8.5092,9.8776 -2.5201,1.96 -134.7735,64.0936 -293.8964,138.0746 -277.7907,129.15333 -289.6535,134.52933 -297.8238,134.96873 -4.6801,0.2516 -9.9858,-0.027 -11.7905,-0.6189 z M -551.4526,17.39457 c 120.4128,-56.0026 218.9182,-102.1175 218.9009,-102.4775 -0.052,-1.0773 -450.8412,-210.3778 -451.9063,-209.8191 -1.1408,0.5986 -1.3592,418.46383 -0.2193,419.60373 0.4194,0.4194 3.8067,-0.643 7.5274,-2.3608 3.7207,-1.7179 105.2845,-48.94373 225.6973,-104.94633 z m -182.3846,32.3993 c -6.8196,-3.4612 -13.0757,-9.5838 -16.6888,-16.3326 l -2.8405,-5.3057 -0.3633,-109.8338 c -0.4075,-123.1447 -0.7218,-118.5238 8.7979,-129.3388 7.4657,-8.4815 16.1535,-11.95 28.1153,-11.2249 9.0171,0.5467 12.3847,2.0134 123.8168,53.9249 124.4068,57.956 122.9866,57.1782 127.9524,70.0817 4.9014,12.7364 1.6526,28.7719 -7.7303,38.1548 -3.4478,3.4478 -30.9487,16.8069 -119.6234,58.1092 l -115.1463,53.6322 -10.4729,0.4226 c -8.5667,0.3457 -11.4456,-0.071 -15.8169,-2.2896 z m 103.0262,-111.5423 c 26.5563,-12.347 48.2841,-22.8201 48.2841,-23.2734 0,-0.6322 -91.424,-43.8066 -99.1655,-46.8303 -1.2908,-0.5041 -1.6364,9.3744 -1.6364,46.7692 0,43.1279 0.1911,47.3349 2.1169,46.5959 1.1643,-0.4467 23.8447,-10.9144 50.4009,-23.2614 z m 329.6217,140.9777 c -6.9124,-3.6012 -13.7237,-10.8299 -16.58,-17.5961 -2.9458,-6.978 -2.6608,-20.4591 0.5855,-27.7036 5.3528,-11.9452 6.277,-12.4735 89.7169,-51.2864 l 78.0537,-36.3073 8.9383,0.029 c 13.6052,0.044 24.3484,5.9272 30.3284,16.1532 l -0.2956,36.6091 c -2.4884,4.3558 -5.7641,8.0298 -9.5743,10.3763 -2.7361,1.6849 -38.8799,18.7949 -80.3197,38.0221 l -75.3449,34.9585 -9.7476,-0.061 c -7.6519,-0.048 -11.0402,-0.7345 -15.7607,-3.1937 z m -122.2184,-322.8592 c -162.6891,-75.6717 -297.7367,-139.0634 -300.1058,-140.8704 -2.3876,-1.8212 -6.1405,-7.0089 -8.4201,-11.6394 -3.703,-7.522 -4.0495,-9.2355 -3.4791,-17.2076 0.6921,-9.6726 2.829,-14.8287 9.1109,-21.9835 6.7546,-7.693 13.1999,1.6632 25.3,1.6221 l 10.4729,-0.035 18.8375,-3.2294 275.7134,128.3696 c 129.6928,60.3837 241.979,113.0135 283.0488,132.6178 0.912,0.4354 1.7888,0.8544 2.63,1.2569 0,0 0.2031,68.3279 -0.2641,68.1619 -0.6683,0.1045 -1.3517,0.1931 -2.0512,0.2661 -1.7259,0.1803 -3.5502,0.2662 -5.4895,0.2645 l -9.5053,-0.01 -295.7984,-137.585 z m 242.3186,-3.7398 c -2.0534,-0.6586 -69.4869,-31.7185 -149.8522,-69.0218 -132.2001,-61.3637 -146.6971,-68.3927 -152.19,-73.7917 -12.8716,-12.6513 -13.19,-31.9645 -3.5035,-45.2797 3.6336,-4.9949 8.6751,2.8543 14.99,0.2158 3.4076,-1.4238 7.7717,-1.8704 14.727,-1.507 l 9.8843,0.5165 23.4218,-1.1093 122.5446,56.9812 c 80.2815,37.3295 147.9212,69.3209 150.3105,71.092 25.9759,19.2547 13.7292,60.7917 -18.4674,62.6358 -4.4725,0.2562 -9.8118,-0.073 -11.8651,-0.7318 z"
     id="path32772"
     inkscape:export-xdpi="90"
     inkscape:export-ydpi="90" />
  <rect
     style="fill:#c1f1fa;fill-opacity:1;stroke:none"
     id="rect32774"
     width="67.172585"
     height="793.62384"
     x="-808.06824"
     y="-253.10704"
     inkscape:export-xdpi="90"
     inkscape:export-ydpi="90" />
  <path
     inkscape:connector-curvature="0"
     style="fill:#13a1b9;fill-opacity:1;stroke:none;stroke-width:1px;stroke-linecap:butt;stroke-linejoin:miter;stroke-opacity:1"
     d="m -875.5676,-439.53073 765,0 0,31.8051 -765,73.4769 z"
     id="path32776"
     inkscape:export-xdpi="90"
     inkscape:export-ydpi="90" />
  <path
     inkscape:connector-curvature="0"
     style="fill:#12708c;fill-opacity:1;stroke:none;stroke-width:1px;stroke-linecap:butt;stroke-linejoin:miter;stroke-opacity:1"
     d="m -875.5676,-334.24873 0,38.2379 357.2496,-72.5511 z"
     id="path32778"
     inkscape:export-xdpi="90"
     inkscape:export-ydpi="90" />
  <rect
     y="-13.01586"
     x="-808.06824"
     height="10"
     width="67.172585"
     id="rect32788"
     style="opacity:1;fill:#fbbc75;fill-opacity:1;stroke:none;stroke-width:17;stroke-linecap:round;stroke-miterlimit:4;stroke-dasharray:none;stroke-opacity:1"
     inkscape:export-xdpi="90"
     inkscape:export-ydpi="90" />
  <rect
     style="opacity:1;fill:#fbbc75;fill-opacity:1;stroke:none;stroke-width:17;stroke-linecap:round;stroke-miterlimit:4;stroke-dasharray:none;stroke-opacity:1"
     id="rect32790"
     width="67.172585"
     height="3"
     x="-808.06824"
     y="42.65028"
     inkscape:export-xdpi="90"
     inkscape:export-ydpi="90" />
  <rect
     y="-253.10704"
     x="-808.06824"
     height="793.62384"
     width="67.172585"
     id="rect32792"
     style="fill:#c1f1fa;fill-opacity:1;stroke:none"
     inkscape:export-xdpi="90"
     inkscape:export-ydpi="90" />
  <g
     id="g32794"
     transform="translate(1577.1429,274.2857)"
     inkscape:export-xdpi="90"
     inkscape:export-ydpi="90">
    <g
       transform="matrix(0.97142857,0,0,0.97142857,-2441.7819,-757.53965)"
       id="g32796">
      <path
         inkscape:connector-curvature="0"
         id="path32798"
         d="m 776.25,1063.6122 -787.5,0 0,-22.6786 787.5,-69.99999 z"
         style="fill:#f89522;fill-opacity:1;stroke:none" />
      <path
         inkscape:connector-curvature="0"
         id="path32800"
         d="m 776.25,970.93361 0,-36.42858 -367.75696,69.11807 z"
         style="fill:#d3832a;fill-opacity:1;stroke:none" />
    </g>
    <g
       id="g32802"
       transform="translate(201.07516,1591.619)">
      <text
         sodipodi:linespacing="120%"
         xml:space="preserve"
         style="font-style:normal;font-variant:normal;font-weight:bold;font-stretch:normal;font-size:18.75px;line-height:120.00000477%;font-family:'Open Sans';-inkscape-font-specification:'Sans Bold';letter-spacing:0px;word-spacing:0px;fill:#c57a27;fill-opacity:1;stroke:none;stroke-width:1px;stroke-linecap:butt;stroke-linejoin:miter;stroke-opacity:1"
         x="-1957.1429"
         y="-1336.2092"
         id="text32804"><tspan
           id="tspan32806"
           x="-1957.1429"
           y="-1336.2092">PA01</tspan></text>
      <rect
         style="opacity:1;fill:none;fill-opacity:1;stroke:none;stroke-width:14;stroke-linecap:round;stroke-linejoin:round;stroke-miterlimit:4;stroke-dasharray:none;stroke-dashoffset:0;stroke-opacity:1"
         id="rect32808"
         width="91.214317"
         height="45.988194"
         x="-1980"
         y="-1361.9235" />
    </g>
    <path
       inkscape:connector-curvature="0"
       id="path32810"
       d="m -1687.7105,275.68363 -765,0 0,-22.03064 765,-67.99999 z"
       style="fill:#f89522;fill-opacity:1;stroke:none" />
    <path
       inkscape:connector-curvature="0"
       id="path32812"
       d="m -1687.7105,185.653 0,-35.38777 -357.2496,67.14327 z"
       style="fill:#d3832a;fill-opacity:1;stroke:none" />
  </g>
  <path
     inkscape:connector-curvature="0"
     id="path32814"
     d="m -875.5676,-439.53073 765,0 0,31.8051 -765,73.4769 z"
     style="fill:#13a1b9;fill-opacity:1;stroke:none;stroke-width:1px;stroke-linecap:butt;stroke-linejoin:miter;stroke-opacity:1"
     inkscape:export-xdpi="90"
     inkscape:export-ydpi="90" />
  <path
     inkscape:connector-curvature="0"
     id="path32816"
     d="m -875.5676,-334.24873 0,38.2379 357.2496,-72.5511 z"
     style="fill:#12708c;fill-opacity:1;stroke:none;stroke-width:1px;stroke-linecap:butt;stroke-linejoin:miter;stroke-opacity:1"
     inkscape:export-xdpi="90"
     inkscape:export-ydpi="90" />
  <path
     inkscape:connector-curvature="0"
     id="path32828"
     d="m 329.12187,489.2584 c -15.1721,-6.0986 -21.6521,-15.7972 -23.3753,-34.9858 -1.6198,-18.036 -15.5156,-36.9699 -38.3751,-52.2882 -12.9731,-8.6934 -39.9699,-21.8611 -59.0254,-28.7896 -18.1592,-6.6027 -23.8051,-10.2312 -29.3408,-18.8571 -3.7161,-5.7905 -4.3598,-8.0528 -4.7565,-16.7145 -0.3583,-7.8257 0.1017,-11.2842 2.102,-15.8064 5.7966,-13.1041 4.7958,-12.5327 82.4928,-47.0948 l 71.6487,-31.8715 10.4729,0 c 11.8006,0 17.8744,2.2523 24.8295,9.2074 5.877,5.877 8.9785,13.1119 9.6066,22.4092 0.8714,12.8996 -4.4605,24.7169 -13.9222,30.8562 -2.6425,1.7146 -18.5011,9.2001 -35.2415,16.6345 -16.7403,7.4343 -30.4189,13.8842 -30.3968,14.333 0.022,0.4488 5.4572,4.3506 12.0781,8.6707 16.8798,11.0139 42.7343,36.958 50.879,51.0555 11.9285,20.6468 17.5138,40.7915 16.6235,59.9567 -0.7361,15.843 -6.6469,25.774 -18.8733,31.7095 -6.1708,2.9958 -21.6765,3.8863 -27.4262,1.5752 z M 57.05397,316.2821 c -11.6291,-4.3277 -21.1329,-16.6331 -22.6339,-29.3062 -1.0818,-9.1347 2.2501,-19.4445 8.6245,-26.6862 4.9301,-5.6009 13.8207,-9.9125 177.2496,-85.9602 l 172.0591,-80.06363 8.9975,0.029 c 20.7199,0.066 34.8525,14.27643 34.8525,35.04383 0,10.6614 -5.1145,21.3648 -12.7803,26.746 -2.871,2.0154 -81.2141,39.0756 -174.0959,82.356 -165.3263,77.0377 -169.0685,78.7026 -178.0397,79.21 -5.9532,0.3367 -10.9399,-0.1427 -14.2334,-1.3683 z M 30.04177,214.8689 c -9.26,-3.038 -17.0884,-9.6868 -21.7727,-18.492 -2.3551,-4.4271 -2.4375,-13.9404 -2.4375,-281.56253 l 0,-276.9805 3.9554,-6.3977 c 8.0769,-13.064 22.4437,-19.636 36.4428,-16.6706 8.4882,1.7981 582.3495,268.7541 588.6259,273.8244 7.6534,6.1827 11.1334,14.6406 11.1334,27.0587 0,9.5068 -0.4065,11.2578 -3.9274,16.9182 -2.16,3.4727 -5.9892,7.9176 -8.5092,9.8776 -2.5201,1.96 -134.7735,64.0936 -293.8964,138.0746 C 61.86537,209.6724 50.00257,215.0484 41.83227,215.4878 c -4.6801,0.2516 -9.9858,-0.027 -11.7905,-0.6189 z M 308.54737,17.39457 c 120.4128,-56.0026 218.9182,-102.1175 218.9009,-102.4775 -0.052,-1.0773 -450.8412,-210.3778 -451.9063,-209.8191 -1.1408,0.5986 -1.3592,418.46383 -0.2193,419.60373 0.4194,0.4194 3.8067,-0.643 7.5274,-2.3608 3.7207,-1.7179 105.2845,-48.94373 225.6973,-104.94633 z m -182.3846,32.3993 c -6.8196,-3.4612 -13.0757,-9.5838 -16.6888,-16.3326 l -2.8405,-5.3057 -0.3633,-109.8338 c -0.4075,-123.1447 -0.7218,-118.5238 8.7979,-129.3388 7.4657,-8.4815 16.1535,-11.95 28.1153,-11.2249 9.0171,0.5467 12.3847,2.0134 123.8168,53.9249 124.4068,57.956 122.9866,57.1782 127.9524,70.0817 4.9014,12.7364 1.6526,28.7719 -7.7303,38.1548 -3.4478,3.4478 -30.9487,16.8069 -119.6234,58.1092 l -115.1463,53.6322 -10.4729,0.4226 c -8.5667,0.3457 -11.4456,-0.071 -15.8169,-2.2896 z m 103.0262,-111.5423 c 26.5563,-12.347 48.2841,-22.8201 48.2841,-23.2734 0,-0.6322 -91.424,-43.8066 -99.1655,-46.8303 -1.2908,-0.5041 -1.6364,9.3744 -1.6364,46.7692 0,43.1279 0.1911,47.3349 2.1169,46.5959 1.1643,-0.4467 23.8447,-10.9144 50.4009,-23.2614 z m 329.6217,140.9777 c -6.9124,-3.6012 -13.7237,-10.8299 -16.58,-17.5961 -2.9458,-6.978 -2.6608,-20.4591 0.5855,-27.7036 5.3528,-11.9452 6.277,-12.4735 89.7169,-51.2864 l 78.0537,-36.3073 8.9383,0.029 c 13.6052,0.044 24.3484,5.9272 30.3284,16.1532 l -0.2956,36.6091 c -2.4884,4.3558 -5.7641,8.0298 -9.5743,10.3763 -2.7361,1.6849 -38.8799,18.7949 -80.3197,38.0221 l -75.3449,34.9585 -9.7476,-0.061 c -7.6519,-0.048 -11.0402,-0.7345 -15.7607,-3.1937 z m -122.2184,-322.8592 c -162.6891,-75.6717 -297.7367,-139.0634 -300.1058,-140.8704 -2.3876,-1.8212 -6.1405,-7.0089 -8.4201,-11.6394 -3.703,-7.522 -4.0495,-9.2355 -3.4791,-17.2076 0.6921,-9.6726 2.829,-14.8287 9.1109,-21.9835 6.7546,-7.693 13.1999,1.6632 25.3,1.6221 l 10.4729,-0.035 18.8375,-3.2294 275.7134,128.3696 c 129.6928,60.3837 241.979,113.0135 283.0488,132.6178 0.912,0.4354 1.7888,0.8544 2.63,1.2569 0,0 0.2031,68.3279 -0.2641,68.1619 -0.6683,0.1045 -1.3517,0.1931 -2.0512,0.2661 -1.7259,0.1803 -3.5502,0.2662 -5.4895,0.2645 l -9.5053,-0.01 -295.7984,-137.585 z m 242.3186,-3.7398 c -2.0534,-0.6586 -69.4869,-31.7185 -149.8522,-69.0218 -132.2001,-61.3637 -146.6971,-68.3927 -152.19,-73.7917 -12.8716,-12.6513 -13.19,-31.9645 -3.5035,-45.2797 3.6336,-4.9949 8.6751,2.8543 14.99,0.2158 3.4076,-1.4238 7.7717,-1.8704 14.727,-1.507 l 9.8843,0.5165 23.4218,-1.1093 122.5446,56.9812 c 80.2815,37.3295 147.9212,69.3209 150.3105,71.092 25.9759,19.2547 13.7292,60.7917 -18.4674,62.6358 -4.4725,0.2562 -9.8118,-0.073 -11.8651,-0.7318 z"
     style="opacity:0.06;fill:#f89522;fill-opacity:1"
     inkscape:export-xdpi="90"
     inkscape:export-ydpi="90" />
  <rect
     y="-253.10704"
     x="51.931721"
     height="793.62384"
     width="67.172585"
     id="rect32830"
     style="fill:#c1f1fa;fill-opacity:1;stroke:none"
     inkscape:export-xdpi="90"
     inkscape:export-ydpi="90" />
  <path
     inkscape:connector-curvature="0"
     id="path32832"
     d="m -15.56763,-439.53073 765,0 0,31.8051 -765,73.4769 z"
     style="fill:#13a1b9;fill-opacity:1;stroke:none;stroke-width:1px;stroke-linecap:butt;stroke-linejoin:miter;stroke-opacity:1"
     inkscape:export-xdpi="90"
     inkscape:export-ydpi="90" />
  <path
     inkscape:connector-curvature="0"
     id="path32834"
     d="m -15.56763,-334.24873 0,38.2379 357.2496,-72.5511 z"
     style="fill:#12708c;fill-opacity:1;stroke:none;stroke-width:1px;stroke-linecap:butt;stroke-linejoin:miter;stroke-opacity:1"
     inkscape:export-xdpi="90"
     inkscape:export-ydpi="90" />
  <rect
     style="opacity:1;fill:#fbbc75;fill-opacity:1;stroke:none;stroke-width:17;stroke-linecap:round;stroke-miterlimit:4;stroke-dasharray:none;stroke-opacity:1"
     id="rect32844"
     width="67.172585"
     height="10"
     x="51.931721"
     y="-13.01586"
     inkscape:export-xdpi="90"
     inkscape:export-ydpi="90" />
  <rect
     y="42.65028"
     x="51.931721"
     height="3"
     width="67.172585"
     id="rect32846"
     style="opacity:1;fill:#fbbc75;fill-opacity:1;stroke:none;stroke-width:17;stroke-linecap:round;stroke-miterlimit:4;stroke-dasharray:none;stroke-opacity:1"
     inkscape:export-xdpi="90"
     inkscape:export-ydpi="90" />
  <rect
     style="fill:#c1f1fa;fill-opacity:1;stroke:none"
     id="rect32848"
     width="67.172585"
     height="793.62384"
     x="51.931721"
     y="-253.10704"
     inkscape:export-xdpi="90"
     inkscape:export-ydpi="90" />
  <g
     transform="translate(2437.1429,274.2857)"
     id="g32850"
     inkscape:export-xdpi="90"
     inkscape:export-ydpi="90">
    <g
       id="g32852"
       transform="matrix(0.97142857,0,0,0.97142857,-2441.7819,-757.53965)">
      <path
         inkscape:connector-curvature="0"
         style="fill:#f89522;fill-opacity:1;stroke:none"
         d="m 776.25,1063.6122 -787.5,0 0,-22.6786 787.5,-69.99999 z"
         id="path32854" />
      <path
         inkscape:connector-curvature="0"
         style="fill:#d3832a;fill-opacity:1;stroke:none"
         d="m 776.25,970.93361 0,-36.42858 -367.75696,69.11807 z"
         id="path32856" />
    </g>
    <g
       transform="translate(201.07516,1591.619)"
       id="g32858">
      <text
         sodipodi:linespacing="120%"
         id="text32860"
         y="-1336.2092"
         x="-1957.1429"
         style="font-style:normal;font-variant:normal;font-weight:bold;font-stretch:normal;font-size:18.75px;line-height:120.00000477%;font-family:'Open Sans';-inkscape-font-specification:'Sans Bold';letter-spacing:0px;word-spacing:0px;fill:#c57a27;fill-opacity:1;stroke:none;stroke-width:1px;stroke-linecap:butt;stroke-linejoin:miter;stroke-opacity:1"
         xml:space="preserve"><tspan
           y="-1336.2092"
           x="-1957.1429"
           id="tspan32862">PA01</tspan></text>
      <rect
         y="-1361.9235"
         x="-1980"
         height="45.988194"
         width="91.214317"
         id="rect32864"
         style="opacity:1;fill:none;fill-opacity:1;stroke:none;stroke-width:14;stroke-linecap:round;stroke-linejoin:round;stroke-miterlimit:4;stroke-dasharray:none;stroke-dashoffset:0;stroke-opacity:1" />
    </g>
    <path
       inkscape:connector-curvature="0"
       style="fill:#f89522;fill-opacity:1;stroke:none"
       d="m -1687.7105,275.68363 -765,0 0,-22.03064 765,-67.99999 z"
       id="path32866" />
    <path
       inkscape:connector-curvature="0"
       style="fill:#d3832a;fill-opacity:1;stroke:none"
       d="m -1687.7105,185.653 0,-35.38777 -357.2496,67.14327 z"
       id="path32868" />
  </g>
  <path
     inkscape:connector-curvature="0"
     style="fill:#13a1b9;fill-opacity:1;stroke:none;stroke-width:1px;stroke-linecap:butt;stroke-linejoin:miter;stroke-opacity:1"
     d="m -15.56763,-439.53073 765,0 0,31.8051 -765,73.4769 z"
     id="path32870"
     inkscape:export-xdpi="90"
     inkscape:export-ydpi="90" />
  <path
     inkscape:connector-curvature="0"
     style="fill:#12708c;fill-opacity:1;stroke:none;stroke-width:1px;stroke-linecap:butt;stroke-linejoin:miter;stroke-opacity:1"
     d="m -15.56763,-334.24873 0,38.2379 357.2496,-72.5511 z"
     id="path32872"
     inkscape:export-xdpi="90"
     inkscape:export-ydpi="90" />
  <g
     transform="translate(-215.88223,1437.5633)"
     id="g33700"
     inkscape:export-xdpi="90"
     inkscape:export-ydpi="90">
    <path
       inkscape:connector-curvature="0"
       style="opacity:0.86666667;fill:#ffffff;stroke:none;stroke-width:1px;stroke-linecap:butt;stroke-linejoin:miter;stroke-opacity:1;filter:url(#filter4050)"
       d="M 522.14285,20.000005 634.0322,27.713816 660.5792,77.209737 554.28571,73.571434 536.42857,92.142862 520,83.571434 c -41.62098,-0.450097 -47.21659,-62.634639 2.14285,-63.571429 z"
       id="path33702"
       transform="matrix(1.4063231,0,0,1.4063231,4.4098571,-1864.0185)" />
    <path
       inkscape:connector-curvature="0"
       id="path33704"
       d="m 760.34626,-1736.3628 c -1.4592,-0.5866 -2.0825,-1.5194 -2.2482,-3.3649 -0.1558,-1.7348 -1.4923,-3.5558 -3.691,-5.0291 -1.2477,-0.8362 -3.8443,-2.1026 -5.677,-2.769 -1.7466,-0.6351 -2.2896,-0.9841 -2.822,-1.8137 -0.3574,-0.5569 -0.4194,-0.7745 -0.4575,-1.6076 -0.034,-0.7527 0.01,-1.0853 0.2022,-1.5203 0.5575,-1.2603 0.4612,-1.2054 7.9342,-4.5296 l 6.8911,-3.0654 1.0073,0 c 1.135,0 1.7192,0.2167 2.3881,0.8856 0.5653,0.5653 0.8635,1.2611 0.924,2.1553 0.084,1.2407 -0.429,2.3773 -1.3391,2.9678 -0.2541,0.1649 -1.7794,0.8849 -3.3895,1.5999 -1.6101,0.7151 -2.9257,1.3354 -2.9236,1.3785 0,0.043 0.5249,0.4185 1.1617,0.834 1.6235,1.0593 4.1102,3.5546 4.8936,4.9105 1.1472,1.9858 1.6844,3.9233 1.5988,5.7667 -0.071,1.5237 -0.6393,2.4789 -1.8152,3.0498 -0.5935,0.2881 -2.0849,0.3738 -2.6379,0.1515 z m -26.1675,-16.6369 c -1.1185,-0.4162 -2.0326,-1.5998 -2.1769,-2.8187 -0.104,-0.8786 0.2164,-1.8701 0.8295,-2.5666 0.4742,-0.5387 1.3292,-0.9534 17.0478,-8.2677 l 16.5487,-7.7005 0.8654,0 c 1.9928,0.01 3.3521,1.3731 3.3521,3.3705 0,1.0254 -0.4919,2.0548 -1.2292,2.5724 -0.2761,0.1938 -7.8112,3.7583 -16.7446,7.921 -15.9011,7.4095 -16.261,7.5696 -17.1239,7.6184 -0.5725,0.032 -1.0522,-0.015 -1.3689,-0.1315 z m -12.3001,-7.0387 c -1.0122,-0.2852 -1.8155,-1.0209 -2.1863,-2.0021 -0.186,-0.4924 -0.201,-2.7295 -0.1697,-25.3445 0.033,-24.0671 0.041,-24.8188 0.2733,-25.2855 0.3047,-0.6136 0.8458,-1.1539 1.5069,-1.5047 0.7352,-0.3902 2.3168,-0.3934 3.0388,-0.01 0.6678,0.3581 1.2498,0.9821 1.564,1.6771 0.2548,0.5636 0.2562,0.6988 0.2582,25.1822 10e-4,16.577 -0.04,24.7687 -0.1281,25.0846 -0.4473,1.6105 -2.4623,2.6765 -4.157,2.199 z m 9.702,-2.7152 c -0.8906,-0.2922 -1.6435,-0.9317 -2.094,-1.7786 -0.2266,-0.4258 -0.2345,-1.3408 -0.2345,-27.0807 l 0,-26.64 0.3804,-0.6154 c 0.7769,-1.2565 2.1587,-1.8885 3.5051,-1.6033 0.8164,0.1729 56.0105,25.8488 56.6141,26.3364 0.7361,0.5947 1.0709,1.4082 1.0709,2.6025 0,0.9144 -0.039,1.0828 -0.3778,1.6272 -0.2077,0.334 -0.576,0.7616 -0.8184,0.9501 -0.2424,0.1885 -12.9625,6.1645 -28.267,13.28 -26.7179,12.422 -27.8589,12.939 -28.6447,12.9813 -0.4501,0.024 -0.9605,0 -1.1341,-0.06 z m 26.7867,-18.9931 c 11.5814,-5.3864 21.0556,-9.8217 21.054,-9.8563 -0.01,-0.1036 -43.362,-20.2342 -43.4644,-20.1804 -0.1098,0.058 -0.1307,40.2478 -0.021,40.3575 0.04,0.04 0.3661,-0.062 0.7239,-0.2271 0.3579,-0.1652 10.1263,-4.7074 21.7076,-10.0937 z m -17.5417,3.1161 c -0.6559,-0.3329 -1.2576,-0.9217 -1.6052,-1.5708 l -0.2731,-0.5103 -0.035,-10.5639 c -0.039,-11.844 -0.069,-11.3996 0.8461,-12.4398 0.7181,-0.8157 1.5537,-1.1493 2.7042,-1.0796 0.8672,0.052 1.1911,0.1936 11.9087,5.1865 11.9655,5.5742 11.8288,5.4994 12.3065,6.7405 0.4714,1.225 0.1589,2.7673 -0.7435,3.6697 -0.3316,0.3316 -2.9767,1.6165 -11.5054,5.589 l -11.0748,5.1583 -1.0073,0.041 c -0.8239,0.033 -1.1008,-0.01 -1.5213,-0.2202 z m 9.9091,-10.7281 c 2.5541,-1.1875 4.6439,-2.1948 4.6439,-2.2384 0,-0.061 -8.7931,-4.2134 -9.5377,-4.5042 -0.1242,-0.048 -0.1574,0.9016 -0.1574,4.4983 0,4.148 0.018,4.5526 0.2036,4.4816 0.112,-0.043 2.2934,-1.0498 4.8476,-2.2373 z m -38.6235,16.5052 c -0.8111,-0.2351 -1.5947,-0.8949 -1.9947,-1.6797 l -0.3806,-0.7466 0,-11.0261 0,-11.0261 0.3543,-0.7214 c 0.6398,-1.3029 1.8081,-1.9481 3.3094,-1.8275 1.3727,0.1102 2.5053,1.0078 2.8873,2.2885 0.2877,0.9642 0.2757,21.6298 -0.013,22.6022 -0.4858,1.6361 -2.436,2.6371 -4.1626,2.1367 z m 70.3265,-2.946 c -0.6648,-0.3463 -1.32,-1.0416 -1.5947,-1.6924 -0.2833,-0.6711 -0.2559,-1.9677 0.056,-2.6645 0.5148,-1.1489 0.6037,-1.1997 8.629,-4.9327 l 7.5072,-3.4921 0.8596,0 c 1.7253,0.01 2.972,0.9875 3.3212,2.6157 0.27,1.2587 -0.3484,2.838 -1.3535,3.457 -0.2631,0.162 -3.7394,1.8077 -7.7251,3.657 l -7.2467,3.3623 -0.9375,-0.01 c -0.736,0 -1.0619,-0.071 -1.5159,-0.3072 z m -11.755,-31.0526 c -15.6474,-7.2781 -28.6363,-13.3751 -28.8642,-13.5489 -0.2296,-0.1752 -0.5906,-0.6741 -0.8098,-1.1195 -0.3562,-0.7235 -0.3895,-0.8883 -0.3347,-1.655 0.067,-0.9303 0.2721,-1.4263 0.8763,-2.1144 0.6497,-0.7399 1.2696,-0.9942 2.4334,-0.9981 l 1.0073,0 28.3299,13.1901 c 15.5815,7.2546 28.5507,13.3455 28.8206,13.5354 0.2698,0.1899 0.6648,0.6553 0.8778,1.0343 0.3332,0.5927 0.3865,0.8128 0.3813,1.5739 -0.01,1.0324 -0.2168,1.595 -0.8598,2.3068 -0.665,0.7361 -1.3834,1.0335 -2.4939,1.0325 l -0.9143,-7e-4 -28.4499,-13.233 z m 23.3062,-0.3597 c -0.1974,-0.063 -6.6832,-3.0507 -14.4127,-6.6385 -12.715,-5.902 -14.1094,-6.578 -14.6377,-7.0973 -1.7024,-1.6733 -1.1217,-4.5581 1.1048,-5.4884 0.3277,-0.137 0.7475,-0.1799 1.4164,-0.145 l 0.9507,0.05 14.0391,6.5279 c 7.7215,3.5904 14.227,6.6673 14.4568,6.8377 2.4984,1.8519 1.3205,5.8469 -1.7761,6.0243 -0.4302,0.025 -0.9437,-0.01 -1.1412,-0.07 z"
       style="fill:#f89522;fill-opacity:1" />
    <text
       sodipodi:linespacing="120%"
       id="text33706"
       y="-1762.3646"
       x="754.72644"
       style="font-style:normal;font-variant:normal;font-weight:bold;font-stretch:normal;font-size:35.14113998px;line-height:120.00000477%;font-family:'Open Sans';-inkscape-font-specification:'Sans Bold';letter-spacing:0px;word-spacing:0px;fill:#ffffff;fill-opacity:1;stroke:#ffffff;stroke-width:7.35435247;stroke-linecap:butt;stroke-linejoin:miter;stroke-miterlimit:4;stroke-dasharray:none;stroke-dashoffset:0;stroke-opacity:1"
       xml:space="preserve"><tspan
         style="font-style:normal;font-variant:normal;font-weight:normal;font-stretch:normal;font-family:'Arial Black';-inkscape-font-specification:'Arial Black, ';fill:#ffffff;stroke:#ffffff;stroke-width:7.35435247;stroke-miterlimit:4;stroke-dasharray:none;stroke-dashoffset:0"
         y="-1762.3646"
         x="754.72644"
         id="tspan33708">SUNDAY</tspan></text>
    <text
       sodipodi:linespacing="120%"
       xml:space="preserve"
       style="font-style:normal;font-variant:normal;font-weight:bold;font-stretch:normal;font-size:35.14113998px;line-height:120.00000477%;font-family:'Open Sans';-inkscape-font-specification:'Sans Bold';letter-spacing:0px;word-spacing:0px;fill:#000000;fill-opacity:1;stroke:none;stroke-width:2;stroke-linecap:butt;stroke-linejoin:miter;stroke-miterlimit:4;stroke-dasharray:none;stroke-dashoffset:0;stroke-opacity:1"
       x="754.72644"
       y="-1762.3646"
       id="text33710"><tspan
         id="tspan33712"
         x="754.72644"
         y="-1762.3646"
         style="font-style:normal;font-variant:normal;font-weight:normal;font-stretch:normal;font-family:'Arial Black';-inkscape-font-specification:'Arial Black, ';stroke:none;stroke-width:2;stroke-miterlimit:4;stroke-dasharray:none;stroke-dashoffset:0">SUNDAY</tspan></text>
  </g>
  <g
     transform="translate(-110.08273,1437.5633)"
     id="g33714"
     inkscape:export-xdpi="90"
     inkscape:export-ydpi="90">
    <path
       inkscape:connector-curvature="0"
       transform="matrix(1.4063231,0,0,1.4063231,-1761.0413,-1864.0185)"
       id="path33716"
       d="m 522.14285,20.000005 96.04255,7.713811 26.547,49.495921 L 554.28571,73.571434 536.42857,92.142862 520,83.571434 c -41.62098,-0.450097 -47.21659,-62.634639 2.14285,-63.571429 z"
       style="opacity:0.86666667;fill:#ffffff;stroke:none;stroke-width:1px;stroke-linecap:butt;stroke-linejoin:miter;stroke-opacity:1;filter:url(#filter4050)" />
    <path
       inkscape:connector-curvature="0"
       style="fill:#f89522;fill-opacity:1"
       d="m -1005.1049,-1736.3628 c -1.4593,-0.5866 -2.0825,-1.5194 -2.2483,-3.3649 -0.1557,-1.7348 -1.4922,-3.5558 -3.6909,-5.0291 -1.2477,-0.8362 -3.8443,-2.1026 -5.677,-2.769 -1.7466,-0.6351 -2.2896,-0.9841 -2.822,-1.8137 -0.3574,-0.5569 -0.4194,-0.7745 -0.4575,-1.6076 -0.034,-0.7527 0.01,-1.0853 0.2021,-1.5203 0.5576,-1.2603 0.4613,-1.2054 7.9342,-4.5296 l 6.8912,-3.0654 1.0073,0 c 1.1349,0 1.7191,0.2167 2.3881,0.8856 0.5652,0.5653 0.8635,1.2611 0.9239,2.1553 0.084,1.2407 -0.4289,2.3773 -1.339,2.9678 -0.2541,0.1649 -1.7794,0.8849 -3.3895,1.5999 -1.6101,0.7151 -2.9257,1.3354 -2.9236,1.3785 0,0.043 0.5249,0.4185 1.1617,0.834 1.6235,1.0593 4.1102,3.5546 4.8935,4.9105 1.1473,1.9858 1.6845,3.9233 1.5989,5.7667 -0.071,1.5237 -0.6393,2.4789 -1.8153,3.0498 -0.5935,0.2881 -2.0848,0.3738 -2.6378,0.1515 z m -26.1675,-16.6369 c -1.1185,-0.4162 -2.0326,-1.5998 -2.1769,-2.8187 -0.104,-0.8786 0.2163,-1.8701 0.8294,-2.5666 0.4742,-0.5387 1.3293,-0.9534 17.0479,-8.2677 l 16.54866,-7.7005 0.8654,0 c 1.9928,0.01 3.3521,1.3731 3.3521,3.3705 0,1.0254 -0.4919,2.0548 -1.2292,2.5724 -0.2762,0.1938 -7.81116,3.7583 -16.74456,7.921 -15.9011,7.4095 -16.261,7.5696 -17.1239,7.6184 -0.5725,0.032 -1.0522,-0.015 -1.3689,-0.1315 z m -12.3001,-7.0387 c -1.0122,-0.2852 -1.8156,-1.0209 -2.1863,-2.0021 -0.186,-0.4924 -0.201,-2.7295 -0.1697,-25.3445 0.033,-24.0671 0.041,-24.8188 0.2732,-25.2855 0.3048,-0.6136 0.8459,-1.1539 1.507,-1.5047 0.7352,-0.3902 2.3168,-0.3934 3.0388,-0.01 0.6678,0.3581 1.2497,0.9821 1.5639,1.6771 0.2549,0.5636 0.2563,0.6988 0.2583,25.1822 10e-4,16.577 -0.04,24.7687 -0.1281,25.0846 -0.4473,1.6105 -2.4623,2.6765 -4.157,2.199 z m 9.702,-2.7152 c -0.8906,-0.2922 -1.6435,-0.9317 -2.0941,-1.7786 -0.2265,-0.4258 -0.2344,-1.3408 -0.2344,-27.0807 l 0,-26.64 0.3804,-0.6154 c 0.7768,-1.2565 2.1586,-1.8885 3.5051,-1.6033 0.8164,0.1729 56.01036,25.8488 56.61406,26.3364 0.7361,0.5947 1.0708,1.4082 1.0708,2.6025 0,0.9144 -0.039,1.0828 -0.3777,1.6272 -0.2078,0.334 -0.5761,0.7616 -0.8185,0.9501 -0.2423,0.1885 -12.9625,6.1645 -28.26686,13.28 -26.718,12.422 -27.8589,12.939 -28.6448,12.9813 -0.4501,0.024 -0.9604,0 -1.134,-0.06 z m 26.7867,-18.9931 c 11.58136,-5.3864 21.05556,-9.8217 21.05386,-9.8563 -0.01,-0.1036 -43.36186,-20.2342 -43.46436,-20.1804 -0.1097,0.058 -0.1306,40.2478 -0.021,40.3575 0.04,0.04 0.3662,-0.062 0.724,-0.2271 0.3579,-0.1652 10.1263,-4.7074 21.7076,-10.0937 z m -17.5417,3.1161 c -0.656,-0.3329 -1.2577,-0.9217 -1.6052,-1.5708 l -0.2732,-0.5103 -0.035,-10.5639 c -0.039,-11.844 -0.069,-11.3996 0.8462,-12.4398 0.718,-0.8157 1.5536,-1.1493 2.7041,-1.0796 0.8673,0.052 1.1912,0.1936 11.9087,5.1865 11.96546,5.5742 11.82886,5.4994 12.30646,6.7405 0.4714,1.225 0.159,2.7673 -0.7435,3.6697 -0.3316,0.3316 -2.97656,1.6165 -11.50536,5.589 l -11.0748,5.1583 -1.0072,0.041 c -0.824,0.033 -1.1009,-0.01 -1.5213,-0.2202 z m 9.909,-10.7281 c 2.5542,-1.1875 4.644,-2.1948 4.644,-2.2384 0,-0.061 -8.7932,-4.2134 -9.5377,-4.5042 -0.1242,-0.048 -0.1574,0.9016 -0.1574,4.4983 0,4.148 0.018,4.5526 0.2036,4.4816 0.112,-0.043 2.2934,-1.0498 4.8475,-2.2373 z m -38.6234,16.5052 c -0.8112,-0.2351 -1.5947,-0.8949 -1.9947,-1.6797 l -0.3806,-0.7466 0,-11.0261 0,-11.0261 0.3543,-0.7214 c 0.6398,-1.3029 1.8081,-1.9481 3.3094,-1.8275 1.3726,0.1102 2.5052,1.0078 2.8873,2.2885 0.2876,0.9642 0.2757,21.6298 -0.013,22.6022 -0.4859,1.6361 -2.4361,2.6371 -4.1626,2.1367 z m 70.32646,-2.946 c -0.6649,-0.3463 -1.32,-1.0416 -1.5947,-1.6924 -0.2833,-0.6711 -0.2559,-1.9677 0.056,-2.6645 0.5149,-1.1489 0.6038,-1.1997 8.629,-4.9327 l 7.5072,-3.4921 0.8597,0 c 1.7253,0.01 2.972,0.9875 3.3212,2.6157 0.2699,1.2587 -0.3484,2.838 -1.3535,3.457 -0.2631,0.162 -3.7395,1.8077 -7.7251,3.657 l -7.2467,3.3623 -0.9376,-0.01 c -0.7359,0 -1.0618,-0.071 -1.5158,-0.3072 z m -11.755,-31.0526 c -15.64736,-7.2781 -28.63626,-13.3751 -28.86416,-13.5489 -0.2297,-0.1752 -0.5906,-0.6741 -0.8099,-1.1195 -0.3561,-0.7235 -0.3894,-0.8883 -0.3346,-1.655 0.067,-0.9303 0.2721,-1.4263 0.8763,-2.1144 0.6497,-0.7399 1.2696,-0.9942 2.4334,-0.9981 l 1.0072,0 28.32996,13.1901 c 15.5815,7.2546 28.5507,13.3455 28.8205,13.5354 0.2699,0.1899 0.6649,0.6553 0.8779,1.0343 0.3332,0.5927 0.3865,0.8128 0.3813,1.5739 -0.01,1.0324 -0.2168,1.595 -0.8598,2.3068 -0.665,0.7361 -1.3834,1.0335 -2.4939,1.0325 l -0.9143,-7e-4 -28.4499,-13.233 z m 23.3062,-0.3597 c -0.1975,-0.063 -6.6832,-3.0507 -14.4128,-6.6385 -12.715,-5.902 -14.1093,-6.578 -14.63756,-7.0973 -1.7024,-1.6733 -1.1217,-4.5581 1.10476,-5.4884 0.3277,-0.137 0.7474,-0.1799 1.4164,-0.145 l 0.9507,0.05 14.039,6.5279 c 7.7215,3.5904 14.2271,6.6673 14.4569,6.8377 2.4984,1.8519 1.3205,5.8469 -1.7762,6.0243 -0.4301,0.025 -0.9437,-0.01 -1.1412,-0.07 z"
       id="path33718" />
    <text
       sodipodi:linespacing="120%"
       xml:space="preserve"
       style="font-style:normal;font-variant:normal;font-weight:bold;font-stretch:normal;font-size:35.14113998px;line-height:120.00000477%;font-family:'Open Sans';-inkscape-font-specification:'Sans Bold';letter-spacing:0px;word-spacing:0px;fill:#ffffff;fill-opacity:1;stroke:#ffffff;stroke-width:7.35435247;stroke-linecap:butt;stroke-linejoin:miter;stroke-miterlimit:4;stroke-dasharray:none;stroke-dashoffset:0;stroke-opacity:1"
       x="-1010.7249"
       y="-1762.3646"
       id="text33720"><tspan
         id="tspan33722"
         x="-1010.7249"
         y="-1762.3646"
         style="font-style:normal;font-variant:normal;font-weight:normal;font-stretch:normal;font-family:'Arial Black';-inkscape-font-specification:'Arial Black, ';fill:#ffffff;stroke:#ffffff;stroke-width:7.35435247;stroke-miterlimit:4;stroke-dasharray:none;stroke-dashoffset:0">FRIDAY</tspan></text>
    <text
       sodipodi:linespacing="120%"
       id="text33724"
       y="-1762.3646"
       x="-1010.7249"
       style="font-style:normal;font-variant:normal;font-weight:bold;font-stretch:normal;font-size:35.14113998px;line-height:120.00000477%;font-family:'Open Sans';-inkscape-font-specification:'Sans Bold';letter-spacing:0px;word-spacing:0px;fill:#000000;fill-opacity:1;stroke:none;stroke-width:2;stroke-linecap:butt;stroke-linejoin:miter;stroke-miterlimit:4;stroke-dasharray:none;stroke-dashoffset:0;stroke-opacity:1"
       xml:space="preserve"><tspan
         style="font-style:normal;font-variant:normal;font-weight:normal;font-stretch:normal;font-family:'Arial Black';-inkscape-font-specification:'Arial Black, ';stroke:none;stroke-width:2;stroke-miterlimit:4;stroke-dasharray:none;stroke-dashoffset:0"
         y="-1762.3646"
         x="-1010.7249"
         id="tspan33726">FRIDAY</tspan></text>
  </g>
  <g
     transform="translate(-196.58663,1437.5633)"
     id="g33728"
     inkscape:export-xdpi="90"
     inkscape:export-ydpi="90">
    <path
       inkscape:connector-curvature="0"
       transform="matrix(1.4063231,0,0,1.4063231,-924.46994,-1864.0185)"
       id="path33730"
       d="m 522.14285,20.000005 144.59876,7.713811 26.547,49.495921 L 554.28571,73.571434 536.42857,92.142862 520,83.571434 c -41.62098,-0.450097 -47.21659,-62.634639 2.14285,-63.571429 z"
       style="opacity:0.86666667;fill:#ffffff;stroke:none;stroke-width:1px;stroke-linecap:butt;stroke-linejoin:miter;stroke-opacity:1;filter:url(#filter4050)" />
    <path
       inkscape:connector-curvature="0"
       style="fill:#f89522;fill-opacity:1"
       d="m -168.53354,-1736.3628 c -1.4593,-0.5866 -2.0825,-1.5194 -2.2483,-3.3649 -0.1557,-1.7348 -1.4922,-3.5558 -3.6909,-5.0291 -1.2477,-0.8362 -3.8443,-2.1026 -5.677,-2.769 -1.7466,-0.6351 -2.2896,-0.9841 -2.822,-1.8137 -0.3574,-0.5569 -0.4194,-0.7745 -0.4575,-1.6076 -0.035,-0.7527 0.01,-1.0853 0.2021,-1.5203 0.5576,-1.2603 0.4613,-1.2054 7.9342,-4.5296 l 6.8912,-3.0654 1.0073,0 c 1.135,0 1.7192,0.2167 2.3881,0.8856 0.5652,0.5653 0.8635,1.2611 0.9239,2.1553 0.084,1.2407 -0.4289,2.3773 -1.339,2.9678 -0.2541,0.1649 -1.7794,0.8849 -3.3895,1.5999 -1.6101,0.7151 -2.9257,1.3354 -2.9236,1.3785 0,0.043 0.5249,0.4185 1.1617,0.834 1.6235,1.0593 4.1102,3.5546 4.8936,4.9105 1.1472,1.9858 1.6844,3.9233 1.5988,5.7667 -0.071,1.5237 -0.6393,2.4789 -1.8153,3.0498 -0.5935,0.2881 -2.0848,0.3738 -2.6378,0.1515 z m -26.1675,-16.6369 c -1.1185,-0.4162 -2.0326,-1.5998 -2.1769,-2.8187 -0.104,-0.8786 0.2163,-1.8701 0.8295,-2.5666 0.4741,-0.5387 1.3292,-0.9534 17.0478,-8.2677 l 16.5487,-7.7005 0.8654,0 c 1.9928,0.01 3.3521,1.3731 3.3521,3.3705 0,1.0254 -0.4919,2.0548 -1.2292,2.5724 -0.2761,0.1938 -7.8112,3.7583 -16.7446,7.921 -15.9011,7.4095 -16.261,7.5696 -17.1239,7.6184 -0.5725,0.032 -1.0522,-0.015 -1.3689,-0.1315 z m -12.3001,-7.0387 c -1.0122,-0.2852 -1.8156,-1.0209 -2.1863,-2.0021 -0.186,-0.4924 -0.201,-2.7295 -0.1697,-25.3445 0.033,-24.0671 0.041,-24.8188 0.2732,-25.2855 0.3048,-0.6136 0.8459,-1.1539 1.507,-1.5047 0.7352,-0.3902 2.3168,-0.3934 3.0388,-0.01 0.6678,0.3581 1.2497,0.9821 1.564,1.6771 0.2548,0.5636 0.2562,0.6988 0.2582,25.1822 0,16.577 -0.04,24.7687 -0.1281,25.0846 -0.4473,1.6105 -2.4623,2.6765 -4.157,2.199 z m 9.702,-2.7152 c -0.8906,-0.2922 -1.6435,-0.9317 -2.0941,-1.7786 -0.2265,-0.4258 -0.2344,-1.3408 -0.2344,-27.0807 l 0,-26.64 0.3804,-0.6154 c 0.7768,-1.2565 2.1586,-1.8885 3.5051,-1.6033 0.8164,0.1729 56.0105,25.8488 56.6141,26.3364 0.7361,0.5947 1.0708,1.4082 1.0708,2.6025 0,0.9144 -0.039,1.0828 -0.3777,1.6272 -0.2078,0.334 -0.5761,0.7616 -0.8185,0.9501 -0.2423,0.1885 -12.9624,6.1645 -28.2669,13.28 -26.718,12.422 -27.8589,12.939 -28.6448,12.9813 -0.4501,0.024 -0.9604,0 -1.134,-0.06 z m 26.7867,-18.9931 c 11.5814,-5.3864 21.0556,-9.8217 21.0539,-9.8563 -0.01,-0.1036 -43.3619,-20.2342 -43.4644,-20.1804 -0.1097,0.058 -0.1306,40.2478 -0.021,40.3575 0.04,0.04 0.3662,-0.062 0.724,-0.2271 0.3579,-0.1652 10.1263,-4.7074 21.7076,-10.0937 z m -17.5417,3.1161 c -0.656,-0.3329 -1.2577,-0.9217 -1.6052,-1.5708 l -0.2732,-0.5103 -0.035,-10.5639 c -0.039,-11.844 -0.069,-11.3996 0.8462,-12.4398 0.718,-0.8157 1.5536,-1.1493 2.7042,-1.0796 0.8672,0.052 1.1911,0.1936 11.9087,5.1865 11.9654,5.5742 11.8288,5.4994 12.3064,6.7405 0.4715,1.225 0.159,2.7673 -0.7434,3.6697 -0.3317,0.3316 -2.9767,1.6165 -11.5055,5.589 l -11.0748,5.1583 -1.0072,0.041 c -0.824,0.033 -1.1009,-0.01 -1.5213,-0.2202 z m 9.909,-10.7281 c 2.5542,-1.1875 4.644,-2.1948 4.644,-2.2384 0,-0.061 -8.7932,-4.2134 -9.5377,-4.5042 -0.1242,-0.048 -0.1574,0.9016 -0.1574,4.4983 0,4.148 0.018,4.5526 0.2036,4.4816 0.112,-0.043 2.2934,-1.0498 4.8475,-2.2373 z m -38.6234,16.5052 c -0.8112,-0.2351 -1.5947,-0.8949 -1.9947,-1.6797 l -0.3806,-0.7466 0,-11.0261 0,-11.0261 0.3543,-0.7214 c 0.6398,-1.3029 1.8081,-1.9481 3.3094,-1.8275 1.3726,0.1102 2.5052,1.0078 2.8873,2.2885 0.2877,0.9642 0.2757,21.6298 -0.013,22.6022 -0.4859,1.6361 -2.4361,2.6371 -4.1626,2.1367 z m 70.3265,-2.946 c -0.6648,-0.3463 -1.32,-1.0416 -1.5947,-1.6924 -0.2833,-0.6711 -0.2559,-1.9677 0.056,-2.6645 0.5149,-1.1489 0.6038,-1.1997 8.629,-4.9327 l 7.5072,-3.4921 0.8597,0 c 1.7253,0.01 2.972,0.9875 3.3212,2.6157 0.2699,1.2587 -0.3484,2.838 -1.3535,3.457 -0.2631,0.162 -3.7395,1.8077 -7.7251,3.657 l -7.2467,3.3623 -0.9376,-0.01 c -0.7359,0 -1.0618,-0.071 -1.5158,-0.3072 z m -11.755,-31.0526 c -15.6474,-7.2781 -28.6363,-13.3751 -28.8642,-13.5489 -0.2297,-0.1752 -0.5906,-0.6741 -0.8098,-1.1195 -0.3562,-0.7235 -0.3895,-0.8883 -0.3347,-1.655 0.067,-0.9303 0.2721,-1.4263 0.8763,-2.1144 0.6497,-0.7399 1.2696,-0.9942 2.4334,-0.9981 l 1.0073,0 28.3299,13.1901 c 15.5815,7.2546 28.5507,13.3455 28.8205,13.5354 0.2699,0.1899 0.6649,0.6553 0.8779,1.0343 0.3332,0.5927 0.3865,0.8128 0.3813,1.5739 -0.01,1.0324 -0.2168,1.595 -0.8598,2.3068 -0.665,0.7361 -1.3834,1.0335 -2.4939,1.0325 l -0.9143,-7e-4 -28.4499,-13.233 z m 23.3062,-0.3597 c -0.1975,-0.063 -6.6832,-3.0507 -14.4128,-6.6385 -12.715,-5.902 -14.1093,-6.578 -14.6376,-7.0973 -1.7024,-1.6733 -1.1217,-4.5581 1.1048,-5.4884 0.3277,-0.137 0.7474,-0.1799 1.4164,-0.145 l 0.9507,0.05 14.039,6.5279 c 7.7215,3.5904 14.2271,6.6673 14.4569,6.8377 2.4984,1.8519 1.3205,5.8469 -1.7762,6.0243 -0.4301,0.025 -0.9437,-0.01 -1.1412,-0.07 z"
       id="path33732" />
    <text
       sodipodi:linespacing="120%"
       xml:space="preserve"
       style="font-style:normal;font-variant:normal;font-weight:bold;font-stretch:normal;font-size:35.14113998px;line-height:120.00000477%;font-family:'Open Sans';-inkscape-font-specification:'Sans Bold';letter-spacing:0px;word-spacing:0px;fill:#ffffff;fill-opacity:1;stroke:#ffffff;stroke-width:7.35435247;stroke-linecap:butt;stroke-linejoin:miter;stroke-miterlimit:4;stroke-dasharray:none;stroke-dashoffset:0;stroke-opacity:1"
       x="-174.15341"
       y="-1762.3646"
       id="text33734"><tspan
         id="tspan33736"
         x="-174.15341"
         y="-1762.3646"
         style="font-style:normal;font-variant:normal;font-weight:normal;font-stretch:normal;font-family:'Arial Black';-inkscape-font-specification:'Arial Black, ';fill:#ffffff;stroke:#ffffff;stroke-width:7.35435247;stroke-miterlimit:4;stroke-dasharray:none;stroke-dashoffset:0">SATURDAY</tspan></text>
    <text
       sodipodi:linespacing="120%"
       id="text33738"
       y="-1762.3646"
       x="-174.15341"
       style="font-style:normal;font-variant:normal;font-weight:bold;font-stretch:normal;font-size:35.14113998px;line-height:120.00000477%;font-family:'Open Sans';-inkscape-font-specification:'Sans Bold';letter-spacing:0px;word-spacing:0px;fill:#000000;fill-opacity:1;stroke:none;stroke-width:2;stroke-linecap:butt;stroke-linejoin:miter;stroke-miterlimit:4;stroke-dasharray:none;stroke-dashoffset:0;stroke-opacity:1"
       xml:space="preserve"><tspan
         style="font-style:normal;font-variant:normal;font-weight:normal;font-stretch:normal;font-family:'Arial Black';-inkscape-font-specification:'Arial Black, ';stroke:none;stroke-width:2;stroke-miterlimit:4;stroke-dasharray:none;stroke-dashoffset:0"
         y="-1762.3646"
         x="-174.15341"
         id="tspan33740">SATURDAY</tspan></text>
  </g>
  <path
     style="fill:#f89522;fill-opacity:1"
     d="m -2058.0448,-298.7995 c -1.4592,-0.5866 -2.0825,-1.5194 -2.2482,-3.3649 -0.1558,-1.7348 -1.4923,-3.5558 -3.6909,-5.0291 -1.2478,-0.8362 -3.8444,-2.1026 -5.6771,-2.769 -1.7466,-0.6351 -2.2896,-0.9841 -2.822,-1.8137 -0.3574,-0.5569 -0.4193,-0.7745 -0.4575,-1.6076 -0.035,-0.7527 0.01,-1.0853 0.2022,-1.5203 0.5575,-1.2603 0.4612,-1.2054 7.9342,-4.5296 l 6.8911,-3.0654 1.0073,0 c 1.135,0 1.7192,0.2167 2.3881,0.8856 0.5653,0.5653 0.8636,1.2611 0.924,2.1553 0.084,1.2407 -0.429,2.3773 -1.3391,2.9678 -0.2541,0.1649 -1.7794,0.8849 -3.3895,1.5999 -1.6101,0.7151 -2.9257,1.3354 -2.9236,1.3785 0,0.043 0.5249,0.4185 1.1617,0.834 1.6235,1.0593 4.1102,3.5546 4.8936,4.9105 1.1472,1.9858 1.6844,3.9233 1.5988,5.7667 -0.071,1.5237 -0.6393,2.4789 -1.8152,3.0498 -0.5935,0.2881 -2.0849,0.3738 -2.6379,0.1515 z m -26.1675,-16.6369 c -1.1185,-0.4162 -2.0326,-1.5998 -2.1769,-2.8187 -0.104,-0.8786 0.2164,-1.8701 0.8295,-2.5666 0.4742,-0.5387 1.3292,-0.9534 17.0478,-8.2677 l 16.5487,-7.7005 0.8654,0 c 1.9928,0.01 3.3521,1.3731 3.3521,3.3705 0,1.0254 -0.4919,2.0548 -1.2292,2.5724 -0.2761,0.1938 -7.8112,3.7583 -16.7446,7.921 -15.901,7.4095 -16.261,7.5696 -17.1238,7.6184 -0.5726,0.032 -1.0522,-0.015 -1.369,-0.1315 z m -12.3001,-7.0387 c -1.0122,-0.2852 -1.8155,-1.0209 -2.1863,-2.0021 -0.186,-0.4924 -0.201,-2.7295 -0.1697,-25.3445 0.033,-24.0671 0.041,-24.8188 0.2733,-25.2855 0.3047,-0.6136 0.8458,-1.1539 1.5069,-1.5047 0.7352,-0.3902 2.3168,-0.3934 3.0388,-0.01 0.6678,0.3581 1.2498,0.9821 1.564,1.6771 0.2548,0.5636 0.2562,0.6988 0.2582,25.1822 0,16.577 -0.04,24.7687 -0.1281,25.0846 -0.4473,1.6105 -2.4623,2.6765 -4.157,2.199 z m 9.702,-2.7152 c -0.8906,-0.2922 -1.6435,-0.9317 -2.094,-1.7786 -0.2266,-0.4258 -0.2345,-1.3408 -0.2345,-27.0807 l 0,-26.64 0.3805,-0.6154 c 0.7768,-1.2565 2.1586,-1.8885 3.505,-1.6033 0.8164,0.1729 56.0105,25.8488 56.6141,26.3364 0.7362,0.5947 1.0709,1.4082 1.0709,2.6025 0,0.9144 -0.039,1.0828 -0.3778,1.6272 -0.2077,0.334 -0.576,0.7616 -0.8184,0.9501 -0.2424,0.1885 -12.9625,6.1645 -28.267,13.28 -26.7179,12.422 -27.8589,12.939 -28.6447,12.9813 -0.4501,0.024 -0.9605,0 -1.1341,-0.06 z m 26.7868,-18.9931 c 11.5813,-5.3864 21.0555,-9.8217 21.0539,-9.8563 -0.01,-0.1036 -43.362,-20.2342 -43.4644,-20.1804 -0.1098,0.058 -0.1307,40.2478 -0.021,40.3575 0.04,0.04 0.3661,-0.062 0.7239,-0.2271 0.3579,-0.1652 10.1263,-4.7074 21.7076,-10.0937 z m -17.5418,3.1161 c -0.6559,-0.3329 -1.2576,-0.9217 -1.6051,-1.5708 l -0.2732,-0.5103 -0.035,-10.5639 c -0.039,-11.844 -0.069,-11.3996 0.8461,-12.4398 0.7181,-0.8157 1.5537,-1.1493 2.7042,-1.0796 0.8672,0.052 1.1911,0.1936 11.9087,5.1865 11.9655,5.5742 11.8288,5.4994 12.3065,6.7405 0.4714,1.225 0.1589,2.7673 -0.7435,3.6697 -0.3316,0.3316 -2.9767,1.6165 -11.5054,5.589 l -11.0748,5.1583 -1.0073,0.041 c -0.8239,0.033 -1.1008,-0.01 -1.5213,-0.2202 z m 9.9091,-10.7281 c 2.5541,-1.1875 4.6439,-2.1948 4.6439,-2.2384 0,-0.061 -8.7931,-4.2134 -9.5377,-4.5042 -0.1242,-0.048 -0.1574,0.9016 -0.1574,4.4983 0,4.148 0.018,4.5526 0.2036,4.4816 0.112,-0.043 2.2934,-1.0498 4.8476,-2.2373 z m -38.6235,16.5052 c -0.8111,-0.2351 -1.5946,-0.8949 -1.9947,-1.6797 l -0.3806,-0.7466 0,-11.0261 0,-11.0261 0.3543,-0.7214 c 0.6398,-1.3029 1.8081,-1.9481 3.3094,-1.8275 1.3727,0.1102 2.5053,1.0078 2.8873,2.2885 0.2877,0.9642 0.2757,21.6298 -0.013,22.6022 -0.4858,1.6361 -2.436,2.6371 -4.1626,2.1367 z m 70.3265,-2.946 c -0.6648,-0.3463 -1.3199,-1.0416 -1.5946,-1.6924 -0.2834,-0.6711 -0.256,-1.9677 0.056,-2.6645 0.5148,-1.1489 0.6037,-1.1997 8.629,-4.9327 l 7.5072,-3.4921 0.8596,0 c 1.7253,0.01 2.972,0.9875 3.3212,2.6157 0.27,1.2587 -0.3484,2.838 -1.3535,3.457 -0.2631,0.162 -3.7394,1.8077 -7.7251,3.657 l -7.2467,3.3623 -0.9375,-0.01 c -0.736,0 -1.0619,-0.071 -1.5159,-0.3072 z m -11.755,-31.0526 c -15.6474,-7.2781 -28.6363,-13.3751 -28.8642,-13.5489 -0.2296,-0.1752 -0.5906,-0.6741 -0.8098,-1.1195 -0.3562,-0.7235 -0.3895,-0.8883 -0.3347,-1.655 0.067,-0.9303 0.2721,-1.4263 0.8764,-2.1144 0.6496,-0.7399 1.2695,-0.9942 2.4333,-0.9981 l 1.0073,0 28.3299,13.1901 c 15.5815,7.2546 28.5507,13.3455 28.8206,13.5354 0.2698,0.1899 0.6648,0.6553 0.8778,1.0343 0.3332,0.5927 0.3865,0.8128 0.3813,1.5739 -0.01,1.0324 -0.2168,1.595 -0.8598,2.3068 -0.665,0.7361 -1.3834,1.0335 -2.4939,1.0325 l -0.9142,-7e-4 -28.45,-13.233 z m 23.3063,-0.3597 c -0.1975,-0.063 -6.6833,-3.0507 -14.4128,-6.6385 -12.715,-5.902 -14.1094,-6.578 -14.6377,-7.0973 -1.7024,-1.6733 -1.1217,-4.5581 1.1048,-5.4884 0.3277,-0.137 0.7475,-0.1799 1.4164,-0.145 l 0.9507,0.05 14.0391,6.5279 c 7.7215,3.5904 14.227,6.6673 14.4568,6.8377 2.4984,1.8519 1.3205,5.8469 -1.7761,6.0243 -0.4302,0.025 -0.9437,-0.01 -1.1412,-0.07 z"
     id="path33744"
     inkscape:connector-curvature="0"
     inkscape:export-xdpi="90"
     inkscape:export-ydpi="90" />
  <text
     xml:space="preserve"
     style="font-style:normal;font-variant:normal;font-weight:bold;font-stretch:normal;font-size:35.14113998px;line-height:120.00000477%;font-family:'Open Sans';-inkscape-font-specification:'Sans Bold';letter-spacing:0px;word-spacing:0px;fill:#ffffff;fill-opacity:1;stroke:#ffffff;stroke-width:7.35435247;stroke-linecap:butt;stroke-linejoin:miter;stroke-miterlimit:4;stroke-dasharray:none;stroke-dashoffset:0;stroke-opacity:1"
     x="-2063.6646"
     y="-324.80133"
     id="text33746"
     sodipodi:linespacing="120%"
     inkscape:export-xdpi="90"
     inkscape:export-ydpi="90"><tspan
       id="tspan33748"
       x="-2063.6646"
       y="-324.80133"
       style="font-style:normal;font-variant:normal;font-weight:normal;font-stretch:normal;font-family:'Arial Black';-inkscape-font-specification:'Arial Black, ';fill:#ffffff;stroke:#ffffff;stroke-width:7.35435247;stroke-miterlimit:4;stroke-dasharray:none;stroke-dashoffset:0">THURSDAY</tspan></text>
  <text
     id="text33750"
     y="-324.80133"
     x="-2063.6646"
     style="font-style:normal;font-variant:normal;font-weight:bold;font-stretch:normal;font-size:35.14113998px;line-height:120.00000477%;font-family:'Open Sans';-inkscape-font-specification:'Sans Bold';letter-spacing:0px;word-spacing:0px;fill:#000000;fill-opacity:1;stroke:none;stroke-width:2;stroke-linecap:butt;stroke-linejoin:miter;stroke-miterlimit:4;stroke-dasharray:none;stroke-dashoffset:0;stroke-opacity:1"
     xml:space="preserve"
     sodipodi:linespacing="120%"
     inkscape:export-xdpi="90"
     inkscape:export-ydpi="90"><tspan
       style="font-style:normal;font-variant:normal;font-weight:normal;font-stretch:normal;font-family:'Arial Black';-inkscape-font-specification:'Arial Black, ';stroke:none;stroke-width:2;stroke-miterlimit:4;stroke-dasharray:none;stroke-dashoffset:0"
       y="-324.80133"
       x="-2063.6646"
       id="tspan33752">THURSDAY</tspan></text>
  <path
     style="opacity:0.86666667;fill:#ffffff;stroke:none;stroke-width:1px;stroke-linecap:butt;stroke-linejoin:miter;stroke-opacity:1;filter:url(#filter4050)"
     d="m 522.14285,20.000005 148.8652,7.713811 26.547,49.495921 L 554.28571,73.571434 536.42857,92.142862 520,83.571434 c -41.62098,-0.450097 -47.21659,-62.634639 2.14285,-63.571429 z"
     id="path33754"
     transform="matrix(1.4063231,0,0,1.4063231,-2813.9811,-426.4552)"
     inkscape:connector-curvature="0"
     inkscape:export-xdpi="90"
     inkscape:export-ydpi="90" />
  <path
     id="path33756"
     d="m -2058.0448,-298.7995 c -1.4592,-0.5866 -2.0825,-1.5194 -2.2482,-3.3649 -0.1558,-1.7348 -1.4923,-3.5558 -3.6909,-5.0291 -1.2478,-0.8362 -3.8444,-2.1026 -5.6771,-2.769 -1.7466,-0.6351 -2.2896,-0.9841 -2.822,-1.8137 -0.3574,-0.5569 -0.4193,-0.7745 -0.4575,-1.6076 -0.035,-0.7527 0.01,-1.0853 0.2022,-1.5203 0.5575,-1.2603 0.4612,-1.2054 7.9342,-4.5296 l 6.8911,-3.0654 1.0073,0 c 1.135,0 1.7192,0.2167 2.3881,0.8856 0.5653,0.5653 0.8636,1.2611 0.924,2.1553 0.084,1.2407 -0.429,2.3773 -1.3391,2.9678 -0.2541,0.1649 -1.7794,0.8849 -3.3895,1.5999 -1.6101,0.7151 -2.9257,1.3354 -2.9236,1.3785 0,0.043 0.5249,0.4185 1.1617,0.834 1.6235,1.0593 4.1102,3.5546 4.8936,4.9105 1.1472,1.9858 1.6844,3.9233 1.5988,5.7667 -0.071,1.5237 -0.6393,2.4789 -1.8152,3.0498 -0.5935,0.2881 -2.0849,0.3738 -2.6379,0.1515 z m -26.1675,-16.6369 c -1.1185,-0.4162 -2.0326,-1.5998 -2.1769,-2.8187 -0.104,-0.8786 0.2164,-1.8701 0.8295,-2.5666 0.4742,-0.5387 1.3292,-0.9534 17.0478,-8.2677 l 16.5487,-7.7005 0.8654,0 c 1.9928,0.01 3.3521,1.3731 3.3521,3.3705 0,1.0254 -0.4919,2.0548 -1.2292,2.5724 -0.2761,0.1938 -7.8112,3.7583 -16.7446,7.921 -15.901,7.4095 -16.261,7.5696 -17.1238,7.6184 -0.5726,0.032 -1.0522,-0.015 -1.369,-0.1315 z m -12.3001,-7.0387 c -1.0122,-0.2852 -1.8155,-1.0209 -2.1863,-2.0021 -0.186,-0.4924 -0.201,-2.7295 -0.1697,-25.3445 0.033,-24.0671 0.041,-24.8188 0.2733,-25.2855 0.3047,-0.6136 0.8458,-1.1539 1.5069,-1.5047 0.7352,-0.3902 2.3168,-0.3934 3.0388,-0.01 0.6678,0.3581 1.2498,0.9821 1.564,1.6771 0.2548,0.5636 0.2562,0.6988 0.2582,25.1822 0,16.577 -0.04,24.7687 -0.1281,25.0846 -0.4473,1.6105 -2.4623,2.6765 -4.157,2.199 z m 9.702,-2.7152 c -0.8906,-0.2922 -1.6435,-0.9317 -2.094,-1.7786 -0.2266,-0.4258 -0.2345,-1.3408 -0.2345,-27.0807 l 0,-26.64 0.3805,-0.6154 c 0.7768,-1.2565 2.1586,-1.8885 3.505,-1.6033 0.8164,0.1729 56.0105,25.8488 56.6141,26.3364 0.7362,0.5947 1.0709,1.4082 1.0709,2.6025 0,0.9144 -0.039,1.0828 -0.3778,1.6272 -0.2077,0.334 -0.576,0.7616 -0.8184,0.9501 -0.2424,0.1885 -12.9625,6.1645 -28.267,13.28 -26.7179,12.422 -27.8589,12.939 -28.6447,12.9813 -0.4501,0.024 -0.9605,0 -1.1341,-0.06 z m 26.7868,-18.9931 c 11.5813,-5.3864 21.0555,-9.8217 21.0539,-9.8563 -0.01,-0.1036 -43.362,-20.2342 -43.4644,-20.1804 -0.1098,0.058 -0.1307,40.2478 -0.021,40.3575 0.04,0.04 0.3661,-0.062 0.7239,-0.2271 0.3579,-0.1652 10.1263,-4.7074 21.7076,-10.0937 z m -17.5418,3.1161 c -0.6559,-0.3329 -1.2576,-0.9217 -1.6051,-1.5708 l -0.2732,-0.5103 -0.035,-10.5639 c -0.039,-11.844 -0.069,-11.3996 0.8461,-12.4398 0.7181,-0.8157 1.5537,-1.1493 2.7042,-1.0796 0.8672,0.052 1.1911,0.1936 11.9087,5.1865 11.9655,5.5742 11.8288,5.4994 12.3065,6.7405 0.4714,1.225 0.1589,2.7673 -0.7435,3.6697 -0.3316,0.3316 -2.9767,1.6165 -11.5054,5.589 l -11.0748,5.1583 -1.0073,0.041 c -0.8239,0.033 -1.1008,-0.01 -1.5213,-0.2202 z m 9.9091,-10.7281 c 2.5541,-1.1875 4.6439,-2.1948 4.6439,-2.2384 0,-0.061 -8.7931,-4.2134 -9.5377,-4.5042 -0.1242,-0.048 -0.1574,0.9016 -0.1574,4.4983 0,4.148 0.018,4.5526 0.2036,4.4816 0.112,-0.043 2.2934,-1.0498 4.8476,-2.2373 z m -38.6235,16.5052 c -0.8111,-0.2351 -1.5946,-0.8949 -1.9947,-1.6797 l -0.3806,-0.7466 0,-11.0261 0,-11.0261 0.3543,-0.7214 c 0.6398,-1.3029 1.8081,-1.9481 3.3094,-1.8275 1.3727,0.1102 2.5053,1.0078 2.8873,2.2885 0.2877,0.9642 0.2757,21.6298 -0.013,22.6022 -0.4858,1.6361 -2.436,2.6371 -4.1626,2.1367 z m 70.3265,-2.946 c -0.6648,-0.3463 -1.3199,-1.0416 -1.5946,-1.6924 -0.2834,-0.6711 -0.256,-1.9677 0.056,-2.6645 0.5148,-1.1489 0.6037,-1.1997 8.629,-4.9327 l 7.5072,-3.4921 0.8596,0 c 1.7253,0.01 2.972,0.9875 3.3212,2.6157 0.27,1.2587 -0.3484,2.838 -1.3535,3.457 -0.2631,0.162 -3.7394,1.8077 -7.7251,3.657 l -7.2467,3.3623 -0.9375,-0.01 c -0.736,0 -1.0619,-0.071 -1.5159,-0.3072 z m -11.755,-31.0526 c -15.6474,-7.2781 -28.6363,-13.3751 -28.8642,-13.5489 -0.2296,-0.1752 -0.5906,-0.6741 -0.8098,-1.1195 -0.3562,-0.7235 -0.3895,-0.8883 -0.3347,-1.655 0.067,-0.9303 0.2721,-1.4263 0.8764,-2.1144 0.6496,-0.7399 1.2695,-0.9942 2.4333,-0.9981 l 1.0073,0 28.3299,13.1901 c 15.5815,7.2546 28.5507,13.3455 28.8206,13.5354 0.2698,0.1899 0.6648,0.6553 0.8778,1.0343 0.3332,0.5927 0.3865,0.8128 0.3813,1.5739 -0.01,1.0324 -0.2168,1.595 -0.8598,2.3068 -0.665,0.7361 -1.3834,1.0335 -2.4939,1.0325 l -0.9142,-7e-4 -28.45,-13.233 z m 23.3063,-0.3597 c -0.1975,-0.063 -6.6833,-3.0507 -14.4128,-6.6385 -12.715,-5.902 -14.1094,-6.578 -14.6377,-7.0973 -1.7024,-1.6733 -1.1217,-4.5581 1.1048,-5.4884 0.3277,-0.137 0.7475,-0.1799 1.4164,-0.145 l 0.9507,0.05 14.0391,6.5279 c 7.7215,3.5904 14.227,6.6673 14.4568,6.8377 2.4984,1.8519 1.3205,5.8469 -1.7761,6.0243 -0.4302,0.025 -0.9437,-0.01 -1.1412,-0.07 z"
     style="fill:#f89522;fill-opacity:1"
     inkscape:connector-curvature="0"
     inkscape:export-xdpi="90"
     inkscape:export-ydpi="90" />
  <text
     id="text33758"
     y="-324.80133"
     x="-2063.6646"
     style="font-style:normal;font-variant:normal;font-weight:bold;font-stretch:normal;font-size:35.14113998px;line-height:120.00000477%;font-family:'Open Sans';-inkscape-font-specification:'Sans Bold';letter-spacing:0px;word-spacing:0px;fill:#ffffff;fill-opacity:1;stroke:#ffffff;stroke-width:7.35435247;stroke-linecap:butt;stroke-linejoin:miter;stroke-miterlimit:4;stroke-dasharray:none;stroke-dashoffset:0;stroke-opacity:1"
     xml:space="preserve"
     sodipodi:linespacing="120%"
     inkscape:export-xdpi="90"
     inkscape:export-ydpi="90"><tspan
       style="font-style:normal;font-variant:normal;font-weight:normal;font-stretch:normal;font-family:'Arial Black';-inkscape-font-specification:'Arial Black, ';fill:#ffffff;stroke:#ffffff;stroke-width:7.35435247;stroke-miterlimit:4;stroke-dasharray:none;stroke-dashoffset:0"
       y="-324.80133"
       x="-2063.6646"
       id="tspan33760">THURSDAY</tspan></text>
  <text
     xml:space="preserve"
     style="font-style:normal;font-variant:normal;font-weight:bold;font-stretch:normal;font-size:35.14113998px;line-height:120.00000477%;font-family:'Open Sans';-inkscape-font-specification:'Sans Bold';letter-spacing:0px;word-spacing:0px;fill:#000000;fill-opacity:1;stroke:none;stroke-width:2;stroke-linecap:butt;stroke-linejoin:miter;stroke-miterlimit:4;stroke-dasharray:none;stroke-dashoffset:0;stroke-opacity:1"
     x="-2063.6646"
     y="-324.80133"
     id="text33762"
     sodipodi:linespacing="120%"
     inkscape:export-xdpi="90"
     inkscape:export-ydpi="90"><tspan
       id="tspan33764"
       x="-2063.6646"
       y="-324.80133"
       style="font-style:normal;font-variant:normal;font-weight:normal;font-stretch:normal;font-family:'Arial Black';-inkscape-font-specification:'Arial Black, ';stroke:none;stroke-width:2;stroke-miterlimit:4;stroke-dasharray:none;stroke-dashoffset:0">THURSDAY</tspan></text>
  <g
     transform="translate(751.42857,274.2857)"
     id="g50686"
     inkscape:export-xdpi="90"
     inkscape:export-ydpi="90">
    <g
       id="g50688"
       transform="matrix(0.97142857,0,0,0.97142857,-2441.7819,-757.53965)">
      <path
         inkscape:connector-curvature="0"
         style="fill:#f89522;fill-opacity:1;stroke:none"
         d="m 776.25,1063.6122 -787.5,0 0,-22.6786 787.5,-69.99999 z"
         id="path50690" />
      <path
         inkscape:connector-curvature="0"
         style="fill:#d3832a;fill-opacity:1;stroke:none"
         d="m 776.25,970.93361 0,-36.42858 -367.75696,69.11807 z"
         id="path50692" />
    </g>
    <g
       transform="translate(201.07516,1591.619)"
       id="g50694">
      <text
         sodipodi:linespacing="120%"
         id="text50696"
         y="-1336.2092"
         x="-1957.1429"
         style="font-style:normal;font-variant:normal;font-weight:bold;font-stretch:normal;font-size:18.75px;line-height:120.00000477%;font-family:'Open Sans';-inkscape-font-specification:'Sans Bold';letter-spacing:0px;word-spacing:0px;fill:#c57a27;fill-opacity:1;stroke:none;stroke-width:1px;stroke-linecap:butt;stroke-linejoin:miter;stroke-opacity:1"
         xml:space="preserve"><tspan
           y="-1336.2092"
           x="-1957.1429"
           id="tspan50698">PA01</tspan></text>
      <rect
         y="-1361.9235"
         x="-1980"
         height="45.988194"
         width="91.214317"
         id="rect50700"
         style="opacity:1;fill:none;fill-opacity:1;stroke:none;stroke-width:14;stroke-linecap:round;stroke-linejoin:round;stroke-miterlimit:4;stroke-dasharray:none;stroke-dashoffset:0;stroke-opacity:1" />
    </g>
    <path
       inkscape:connector-curvature="0"
       style="fill:#f89522;fill-opacity:1;stroke:none"
       d="m -1687.7105,275.68363 -765,0 0,-22.03064 765,-67.99999 z"
       id="path50702" />
    <path
       inkscape:connector-curvature="0"
       style="fill:#d3832a;fill-opacity:1;stroke:none"
       d="m -1687.7105,185.653 0,-35.38777 -357.2496,67.14327 z"
       id="path50704" />
  </g>
  <g
     id="g50712"
     transform="translate(1577.1429,274.2857)"
     inkscape:export-xdpi="90"
     inkscape:export-ydpi="90">
    <g
       transform="matrix(0.97142857,0,0,0.97142857,-2441.7819,-757.53965)"
       id="g50714">
      <path
         inkscape:connector-curvature="0"
         id="path50716"
         d="m 776.25,1063.6122 -787.5,0 0,-22.6786 787.5,-69.99999 z"
         style="fill:#f89522;fill-opacity:1;stroke:none" />
      <path
         inkscape:connector-curvature="0"
         id="path50718"
         d="m 776.25,970.93361 0,-36.42858 -367.75696,69.11807 z"
         style="fill:#d3832a;fill-opacity:1;stroke:none" />
    </g>
    <g
       id="g50720"
       transform="translate(201.07516,1591.619)">
      <text
         sodipodi:linespacing="120%"
         xml:space="preserve"
         style="font-style:normal;font-variant:normal;font-weight:bold;font-stretch:normal;font-size:18.75px;line-height:120.00000477%;font-family:'Open Sans';-inkscape-font-specification:'Sans Bold';letter-spacing:0px;word-spacing:0px;fill:#c57a27;fill-opacity:1;stroke:none;stroke-width:1px;stroke-linecap:butt;stroke-linejoin:miter;stroke-opacity:1"
         x="-1957.1429"
         y="-1336.2092"
         id="text50722"><tspan
           id="tspan50724"
           x="-1957.1429"
           y="-1336.2092">PA01</tspan></text>
      <rect
         style="opacity:1;fill:none;fill-opacity:1;stroke:none;stroke-width:14;stroke-linecap:round;stroke-linejoin:round;stroke-miterlimit:4;stroke-dasharray:none;stroke-dashoffset:0;stroke-opacity:1"
         id="rect50726"
         width="91.214317"
         height="45.988194"
         x="-1980"
         y="-1361.9235" />
    </g>
    <path
       inkscape:connector-curvature="0"
       id="path50728"
       d="m -1687.7105,275.68363 -765,0 0,-22.03064 765,-67.99999 z"
       style="fill:#f89522;fill-opacity:1;stroke:none" />
    <path
       inkscape:connector-curvature="0"
       id="path50730"
       d="m -1687.7105,185.653 0,-35.38777 -357.2496,67.14327 z"
       style="fill:#d3832a;fill-opacity:1;stroke:none" />
  </g>
  <g
     transform="translate(2437.1429,274.2857)"
     id="g50738"
     inkscape:export-xdpi="90"
     inkscape:export-ydpi="90">
    <g
       id="g50740"
       transform="matrix(0.97142857,0,0,0.97142857,-2441.7819,-757.53965)">
      <path
         inkscape:connector-curvature="0"
         style="fill:#f89522;fill-opacity:1;stroke:none"
         d="m 776.25,1063.6122 -787.5,0 0,-22.6786 787.5,-69.99999 z"
         id="path50742" />
      <path
         inkscape:connector-curvature="0"
         style="fill:#d3832a;fill-opacity:1;stroke:none"
         d="m 776.25,970.93361 0,-36.42858 -367.75696,69.11807 z"
         id="path50744" />
    </g>
    <g
       transform="translate(201.07516,1591.619)"
       id="g50746">
      <text
         sodipodi:linespacing="120%"
         id="text50748"
         y="-1336.2092"
         x="-1957.1429"
         style="font-style:normal;font-variant:normal;font-weight:bold;font-stretch:normal;font-size:18.75px;line-height:120.00000477%;font-family:'Open Sans';-inkscape-font-specification:'Sans Bold';letter-spacing:0px;word-spacing:0px;fill:#c57a27;fill-opacity:1;stroke:none;stroke-width:1px;stroke-linecap:butt;stroke-linejoin:miter;stroke-opacity:1"
         xml:space="preserve"><tspan
           y="-1336.2092"
           x="-1957.1429"
           id="tspan50750">PA01</tspan></text>
      <rect
         y="-1361.9235"
         x="-1980"
         height="45.988194"
         width="91.214317"
         id="rect50752"
         style="opacity:1;fill:none;fill-opacity:1;stroke:none;stroke-width:14;stroke-linecap:round;stroke-linejoin:round;stroke-miterlimit:4;stroke-dasharray:none;stroke-dashoffset:0;stroke-opacity:1" />
    </g>
    <path
       inkscape:connector-curvature="0"
       style="fill:#f89522;fill-opacity:1;stroke:none"
       d="m -1687.7105,275.68363 -765,0 0,-22.03064 765,-67.99999 z"
       id="path50754" />
    <path
       inkscape:connector-curvature="0"
       style="fill:#d3832a;fill-opacity:1;stroke:none"
       d="m -1687.7105,185.653 0,-35.38777 -357.2496,67.14327 z"
       id="path50756" />
  </g>
</svg>
